{"glyphs":{"0":{"ha":833,"x_min":83,"x_max":749,"o":"m 570 793 l 330 119 q 424 88 368 88 q 527 144 481 88 q 616 506 616 254 q 570 793 616 681 m 565 25 q 532 4 565 25 q 416 -17 500 -17 q 268 25 333 -17 q 163 141 203 68 q 83 507 83 288 q 190 918 83 777 q 285 998 227 968 q 416 1028 343 1028 q 548 998 490 1028 q 702 809 654 944 q 749 507 749 675 q 670 141 749 288 q 565 25 630 68 m 508 888 q 410 924 468 924 q 306 868 352 924 q 216 506 216 758 q 265 212 216 325 l 508 888 z "},"1":{"ha":833,"x_min":161,"x_max":729,"o":"m 161 873 q 389 1012 254 911 l 516 1012 l 516 99 l 729 99 l 729 0 l 161 0 l 161 99 l 389 99 l 389 875 q 294 818 370 864 q 161 750 218 772 l 161 873 z "},"2":{"ha":833,"x_min":126,"x_max":707,"o":"m 126 946 q 237 1008 180 988 q 377 1028 295 1028 q 604 949 524 1028 q 684 738 684 869 q 641 563 684 642 q 564 444 597 484 q 506 374 531 404 l 273 99 l 707 99 l 707 0 l 133 0 l 133 130 l 430 490 q 536 666 515 595 q 546 734 546 700 q 503 864 546 819 q 385 909 460 909 q 266 892 311 909 q 173 840 222 875 l 126 946 z "},"3":{"ha":833,"x_min":109,"x_max":760,"o":"m 157 185 q 257 131 192 155 q 407 106 323 106 q 549 155 491 106 q 607 293 607 203 q 433 469 607 434 q 328 478 385 478 l 253 478 l 253 599 l 328 600 q 553 684 508 602 q 572 765 572 717 q 525 876 572 837 q 389 915 477 915 q 157 828 255 915 l 111 937 q 405 1028 218 1028 q 633 960 545 1028 q 722 783 722 891 q 657 620 722 674 q 501 545 593 566 q 682 462 604 526 q 760 280 760 397 q 606 35 760 107 q 385 -8 515 -8 q 109 77 222 -8 l 157 185 z "},"4":{"ha":833,"x_min":41,"x_max":772,"o":"m 481 869 l 170 365 l 481 365 l 481 869 m 608 0 l 481 0 l 481 270 l 41 270 l 41 367 l 452 1012 l 608 1012 l 608 365 l 772 365 l 772 270 l 608 270 l 608 0 z "},"5":{"ha":833,"x_min":114,"x_max":753,"o":"m 616 335 q 571 486 616 423 q 448 549 526 549 q 321 474 369 549 l 179 474 l 179 1012 l 669 1012 l 669 913 l 307 913 l 307 597 q 410 655 346 636 q 457 662 434 662 q 586 634 528 662 q 680 560 644 607 q 753 345 753 465 q 699 133 753 225 q 545 4 644 41 q 410 -16 492 -16 q 114 82 245 -16 l 164 186 q 417 88 286 88 q 526 125 480 88 q 616 335 616 197 z "},"6":{"ha":833,"x_min":104,"x_max":755,"o":"m 239 299 q 239 253 239 299 q 292 147 239 206 q 432 87 345 87 q 572 149 519 87 q 625 301 625 210 q 575 456 625 393 q 435 519 526 519 q 292 455 345 519 q 239 299 239 392 m 321 578 q 468 618 385 618 q 677 529 599 618 q 755 304 755 441 q 729 169 755 231 q 657 66 702 107 q 421 -18 564 -18 q 192 73 279 -18 q 104 332 104 163 q 216 636 104 501 l 524 1012 l 688 1012 l 321 578 z "},"7":{"ha":833,"x_min":97,"x_max":697,"o":"m 97 897 l 97 1012 l 697 1012 l 697 913 l 410 0 l 252 0 l 536 897 l 97 897 z "},"8":{"ha":833,"x_min":123,"x_max":726,"o":"m 425 593 q 576 773 576 634 q 533 885 576 846 q 425 924 491 924 q 316 885 359 924 q 274 772 274 845 q 425 593 274 634 m 726 275 q 645 60 726 137 q 425 -16 565 -16 q 203 60 284 -16 q 123 275 123 137 q 153 395 123 342 q 333 528 208 490 q 143 774 143 594 q 222 960 143 892 q 425 1028 302 1028 q 627 960 547 1028 q 707 774 707 892 q 517 528 707 594 q 665 438 604 501 q 726 275 726 376 m 269 256 q 309 133 269 177 q 425 88 349 88 q 541 133 500 88 q 581 256 581 177 q 425 460 581 413 q 269 256 269 412 z "},"9":{"ha":833,"x_min":131,"x_max":782,"o":"m 450 509 q 496 509 450 509 q 594 568 541 509 q 646 719 646 627 q 593 868 646 811 q 454 924 541 924 q 313 866 367 924 q 260 716 260 807 q 309 567 260 625 q 450 509 359 509 m 564 454 q 417 414 500 414 q 208 496 286 414 q 131 713 131 578 q 177 884 131 811 q 294 993 222 958 q 451 1029 366 1029 q 694 941 607 1029 q 782 696 782 853 q 671 395 782 538 l 366 0 l 201 0 l 564 454 z "},"\u0000":{"ha":833,"x_min":0,"x_max":0,"o":""}," ":{"ha":833,"x_min":0,"x_max":0,"o":""},"!":{"ha":833,"x_min":336,"x_max":498,"o":"m 498 0 l 336 0 l 336 187 l 498 187 l 498 0 m 396 332 l 336 1012 l 498 1012 l 438 332 l 396 332 z "},"\"":{"ha":833,"x_min":193,"x_max":600,"o":"m 600 1063 l 566 703 l 470 703 l 444 1063 l 600 1063 m 351 1063 l 317 703 l 220 703 l 193 1063 l 351 1063 z "},"#":{"ha":833,"x_min":73,"x_max":795,"o":"m 401 676 l 345 389 l 493 389 l 550 676 l 401 676 m 783 676 l 659 676 l 601 389 l 728 389 l 718 296 l 585 296 l 524 -17 l 414 -17 l 473 296 l 328 296 l 267 -17 l 156 -17 l 220 296 l 73 296 l 82 389 l 237 389 l 292 675 l 139 675 l 149 766 l 309 766 l 367 1063 l 477 1063 l 420 766 l 568 766 l 625 1063 l 734 1063 l 676 766 l 795 766 l 783 676 z "},"$":{"ha":833,"x_min":96,"x_max":715,"o":"m 389 1188 l 452 1188 l 452 1027 q 676 954 593 1019 l 629 856 q 452 923 555 913 l 452 576 q 600 499 555 534 q 666 437 645 465 q 715 281 715 373 q 645 74 715 149 q 452 -14 575 -1 l 452 -148 l 389 -148 l 389 -17 q 96 64 213 -14 l 144 177 q 389 88 246 94 l 389 466 q 270 517 302 501 q 145 613 189 557 q 102 756 102 670 q 140 903 102 843 q 389 1028 214 1021 l 389 1188 m 389 601 l 389 923 q 281 872 320 916 q 242 764 242 829 q 285 662 242 699 q 389 601 328 625 m 452 438 l 452 94 q 541 155 510 108 q 572 268 572 203 q 540 372 572 334 q 452 438 508 410 z "},"%":{"ha":833,"x_min":45,"x_max":789,"o":"m 309 911 q 306 927 309 911 q 281 965 302 943 q 228 988 260 988 q 150 943 169 988 q 131 833 131 899 q 149 725 131 768 q 223 681 166 681 q 315 836 315 681 q 309 911 315 880 m 763 690 l 136 315 l 95 385 l 722 762 l 763 690 m 225 1065 q 399 834 399 1065 q 352 666 399 728 q 217 604 305 604 q 87 666 130 604 q 45 833 45 728 q 89 1002 45 938 q 225 1065 134 1065 m 614 449 q 789 218 789 449 q 742 49 789 111 q 607 -13 694 -13 q 476 50 519 -13 q 434 217 434 112 q 478 385 434 321 q 614 449 523 449 m 698 295 q 695 311 698 295 q 670 349 692 326 q 617 372 649 372 q 539 327 558 372 q 520 217 520 282 q 538 108 520 152 q 612 64 555 64 q 705 219 705 64 q 698 295 705 264 z "},"&":{"ha":833,"x_min":46,"x_max":812,"o":"m 335 652 q 467 845 467 726 q 437 944 467 909 q 357 979 406 979 q 272 949 307 979 q 237 874 237 920 q 335 652 237 785 m 376 97 q 468 117 429 97 q 545 176 507 138 l 304 506 q 188 284 188 418 q 238 146 188 195 q 376 97 288 97 m 812 386 q 688 160 741 215 l 772 52 l 684 -16 l 614 82 q 500 11 568 38 q 360 -17 433 -17 q 131 60 215 -17 q 46 280 46 138 q 235 597 46 472 q 117 791 153 690 q 103 865 103 831 q 173 1025 103 968 q 351 1081 243 1081 q 532 1024 459 1081 q 604 860 604 966 q 539 684 604 753 q 389 568 475 616 l 619 254 q 705 425 663 305 l 812 386 z "},"'":{"ha":833,"x_min":336,"x_max":512,"o":"m 378 657 l 336 1072 l 512 1072 l 475 657 l 378 657 z "},"(":{"ha":833,"x_min":260,"x_max":585,"o":"m 467 -103 q 260 523 260 173 q 465 1156 260 873 l 584 1156 q 391 530 391 852 q 442 197 391 349 q 585 -103 492 45 l 467 -103 z "},")":{"ha":833,"x_min":227,"x_max":553,"o":"m 348 1156 q 553 523 553 873 q 346 -103 553 173 l 227 -103 q 370 197 319 45 q 420 530 420 349 q 228 1156 420 852 l 348 1156 z "},"*":{"ha":833,"x_min":38,"x_max":795,"o":"m 709 254 l 587 183 l 415 456 l 246 183 l 123 254 l 338 510 l 38 610 l 100 732 l 373 587 l 349 902 l 482 902 l 462 587 l 732 732 l 795 610 l 494 510 l 709 254 z "},"+":{"ha":833,"x_min":103,"x_max":889,"o":"m 442 872 l 552 872 l 552 561 l 889 561 l 889 458 l 551 458 l 551 147 l 439 147 l 439 458 l 103 458 l 103 561 l 442 561 l 442 872 z "},",":{"ha":833,"x_min":298,"x_max":507,"o":"m 298 -218 l 333 194 l 507 194 l 381 -218 l 298 -218 z "},"-":{"ha":833,"x_min":219,"x_max":673,"o":"m 673 561 l 673 456 l 219 456 l 219 561 l 673 561 z "},".":{"ha":833,"x_min":314,"x_max":518,"o":"m 518 0 l 314 0 l 314 204 l 518 204 l 518 0 z "},"/":{"ha":833,"x_min":125,"x_max":735,"o":"m 602 1075 l 735 1075 l 254 -152 l 125 -152 l 602 1075 z "},":":{"ha":833,"x_min":330,"x_max":534,"o":"m 534 98 l 330 98 l 330 302 l 534 302 l 534 98 m 534 563 l 330 563 l 330 766 l 534 766 l 534 563 z "},";":{"ha":833,"x_min":278,"x_max":528,"o":"m 528 568 l 325 568 l 325 772 l 528 772 l 528 568 m 278 -212 l 330 194 l 514 194 l 400 -212 l 278 -212 z "},"<":{"ha":833,"x_min":103,"x_max":799,"o":"m 796 249 l 796 129 l 103 467 l 103 547 l 799 896 l 799 774 l 268 508 l 796 249 z "},"=":{"ha":833,"x_min":23,"x_max":810,"o":"m 810 310 l 24 310 l 24 410 l 810 410 l 810 310 m 810 609 l 23 609 l 23 711 l 810 711 l 810 609 z "},">":{"ha":833,"x_min":103,"x_max":799,"o":"m 107 783 l 107 896 l 799 538 l 799 474 l 103 144 l 103 258 l 633 511 l 107 783 z "},"?":{"ha":833,"x_min":114,"x_max":650,"o":"m 222 -8 l 222 146 l 387 146 l 387 -8 l 222 -8 m 289 1089 q 632 933 567 1089 q 650 841 650 890 q 634 753 650 793 q 592 683 618 714 q 534 621 566 651 q 471 563 503 591 q 414 506 439 534 q 355 377 355 442 q 368 271 355 338 l 244 271 q 237 386 237 330 l 236 387 q 290 530 236 470 q 379 613 326 570 q 458 682 432 656 q 524 829 524 749 q 387 975 524 945 q 303 984 348 984 q 114 934 207 984 l 114 1041 q 289 1089 216 1089 z "},"@":{"ha":833,"x_min":54,"x_max":839,"o":"m 536 636 q 460 698 516 698 q 354 570 391 698 q 334 420 334 503 q 426 267 334 267 q 530 376 489 267 q 551 510 551 435 q 536 636 551 585 m 454 766 q 571 658 529 766 l 585 744 l 663 744 q 644 612 663 744 q 625 355 625 479 q 639 292 625 323 q 677 262 654 262 q 734 334 711 262 q 775 586 775 457 q 743 797 775 715 q 645 927 711 878 q 490 977 580 977 q 331 933 401 977 q 217 813 260 889 q 131 435 131 661 q 284 59 131 174 q 469 1 362 1 q 756 117 623 1 l 789 79 q 462 -60 645 -60 q 308 -30 378 -60 q 115 164 183 24 q 54 426 54 288 q 87 674 54 564 q 178 863 121 785 q 313 984 235 940 q 472 1028 391 1028 q 613 1006 553 1028 q 715 947 673 985 q 785 857 757 909 q 826 744 813 804 q 839 617 839 684 q 830 483 839 550 q 803 351 821 415 q 750 246 785 286 q 668 206 716 206 q 592 244 620 206 q 557 342 564 281 q 493 234 535 267 q 408 201 450 201 q 290 272 324 201 q 256 433 256 344 q 280 596 256 522 q 351 718 304 670 q 454 766 397 766 z "},"A":{"ha":833,"x_min":46,"x_max":787,"o":"m 300 428 l 532 428 l 418 867 l 300 428 m 488 1011 l 787 0 l 654 0 l 558 326 l 274 326 l 179 0 l 46 0 l 345 1011 l 488 1011 z "},"B":{"ha":833,"x_min":106,"x_max":754,"o":"m 333 594 q 517 633 466 594 q 569 739 569 672 q 514 873 569 840 q 417 905 475 899 q 269 912 359 912 l 233 912 l 233 594 l 333 594 m 363 485 l 233 485 l 233 99 l 342 99 q 552 141 484 99 q 621 295 621 183 q 553 446 621 408 q 363 485 486 485 m 754 294 q 350 0 754 0 l 106 0 l 106 1011 l 305 1011 q 617 946 533 1011 q 702 763 702 882 q 653 624 702 676 q 521 549 604 572 q 688 464 621 534 q 754 294 754 394 z "},"C":{"ha":833,"x_min":84,"x_max":766,"o":"m 765 943 l 720 854 q 525 924 630 924 q 351 865 420 924 q 217 507 217 751 q 252 296 217 390 q 354 145 286 201 q 513 88 422 88 q 722 161 632 88 l 766 66 q 498 -17 671 -17 q 279 51 374 -17 q 134 238 184 119 q 84 491 84 357 q 116 723 84 625 q 203 888 148 821 q 334 991 258 954 q 498 1028 410 1028 q 765 943 667 1028 z "},"D":{"ha":833,"x_min":106,"x_max":761,"o":"m 252 99 q 578 252 497 99 q 628 507 628 347 q 548 808 628 705 q 254 912 467 912 l 233 912 l 233 99 l 252 99 m 106 1011 l 272 1011 q 637 880 513 1011 q 761 504 761 749 q 635 130 761 259 q 257 0 509 0 l 106 0 l 106 1011 z "},"E":{"ha":833,"x_min":147,"x_max":751,"o":"m 274 464 l 274 99 l 751 99 l 741 0 l 147 0 l 147 1011 l 729 1011 l 718 912 l 274 912 l 274 572 l 696 572 l 696 464 l 274 464 z "},"F":{"ha":833,"x_min":165,"x_max":731,"o":"m 292 463 l 292 0 l 165 0 l 165 1011 l 731 1011 l 719 912 l 292 912 l 292 574 l 701 574 l 701 463 l 292 463 z "},"G":{"ha":833,"x_min":73,"x_max":779,"o":"m 711 851 q 498 924 631 924 q 371 889 428 924 q 279 795 314 854 q 205 504 205 672 q 271 215 205 335 q 356 122 303 156 q 470 88 409 88 q 572 103 532 88 q 661 147 613 119 l 661 424 l 437 424 l 437 528 l 779 528 l 779 90 q 628 11 699 39 q 463 -17 557 -17 q 293 25 369 -17 q 169 139 216 66 q 73 509 73 286 q 104 722 73 624 q 191 886 136 819 q 323 990 247 953 q 488 1027 400 1027 q 757 941 656 1027 l 711 851 z "},"H":{"ha":833,"x_min":95,"x_max":739,"o":"m 222 0 l 95 0 l 95 1011 l 222 1011 l 222 580 l 612 580 l 612 1011 l 739 1011 l 739 0 l 612 0 l 612 476 l 222 476 l 222 0 z "},"I":{"ha":833,"x_min":132,"x_max":702,"o":"m 132 912 l 132 1011 l 702 1011 l 702 912 l 477 912 l 477 99 l 702 99 l 702 0 l 132 0 l 132 99 l 351 99 l 351 912 l 132 912 z "},"J":{"ha":833,"x_min":115,"x_max":627,"o":"m 115 102 q 304 85 267 85 q 368 90 340 85 q 500 265 500 111 l 500 912 l 210 912 l 210 1011 l 627 1011 l 627 300 q 557 65 627 141 q 309 -11 488 -11 q 115 0 245 -11 l 115 102 z "},"K":{"ha":833,"x_min":143,"x_max":809,"o":"m 629 1011 l 787 1011 l 448 558 l 809 0 l 648 0 l 351 475 l 270 380 l 270 0 l 143 0 l 143 1011 l 270 1011 l 270 524 l 629 1011 z "},"L":{"ha":833,"x_min":205,"x_max":723,"o":"m 332 99 l 723 99 l 716 0 l 205 0 l 205 1011 l 332 1011 l 332 99 z "},"M":{"ha":833,"x_min":101,"x_max":732,"o":"m 227 834 l 227 0 l 101 0 l 101 1011 l 274 1011 l 418 544 l 563 1011 l 732 1011 l 732 0 l 609 0 l 609 834 l 489 438 l 347 438 l 227 834 z "},"N":{"ha":833,"x_min":102,"x_max":731,"o":"m 731 0 l 582 0 l 217 818 l 217 0 l 102 0 l 102 1011 l 248 1011 l 618 196 l 618 1011 l 731 1011 l 731 0 z "},"O":{"ha":833,"x_min":83,"x_max":749,"o":"m 527 868 q 504 896 527 868 q 416 924 481 924 q 306 868 352 924 q 238 718 260 811 q 216 506 216 625 q 238 294 216 387 q 306 144 260 201 q 416 88 352 88 q 527 144 481 88 q 595 294 573 201 q 616 506 616 387 q 595 718 616 625 q 527 868 573 811 m 565 25 q 532 4 565 25 q 416 -17 500 -17 q 268 25 333 -17 q 163 141 203 68 q 83 507 83 288 q 190 918 83 777 q 285 998 227 968 q 416 1028 343 1028 q 548 998 490 1028 q 702 809 654 944 q 749 507 749 675 q 670 141 749 288 q 565 25 630 68 z "},"P":{"ha":833,"x_min":119,"x_max":767,"o":"m 246 519 l 422 519 q 576 569 518 519 q 634 717 634 619 q 576 863 634 814 q 422 912 519 912 l 246 912 l 246 519 m 738 858 q 767 724 767 800 q 619 456 767 518 q 388 418 527 418 l 246 418 l 246 0 l 119 0 l 119 1011 l 389 1011 q 738 858 661 1011 z "},"Q":{"ha":833,"x_min":57,"x_max":723,"o":"m 500 868 q 477 896 500 868 q 390 924 454 924 q 279 868 326 924 q 212 718 233 811 q 190 506 190 625 q 212 294 190 387 q 279 144 233 201 q 390 88 326 88 q 500 144 454 88 q 568 294 547 201 q 590 506 590 387 q 568 718 590 625 q 500 868 547 811 m 390 -17 q 241 25 307 -17 q 137 141 176 68 q 57 507 57 288 q 163 918 57 777 q 259 998 201 968 q 390 1028 317 1028 q 521 998 463 1028 q 675 809 627 944 q 723 507 723 675 q 672 203 723 338 q 518 14 622 68 q 705 -224 581 -113 l 621 -311 q 399 -17 477 -171 q 390 -17 395 -17 z "},"R":{"ha":833,"x_min":126,"x_max":804,"o":"m 385 559 l 253 559 l 253 912 l 382 912 q 604 825 553 912 q 624 745 624 791 q 562 601 624 644 q 385 559 500 559 m 323 1011 l 126 1011 l 126 0 l 253 0 l 253 449 l 312 449 l 408 451 q 476 349 452 389 q 512 290 500 309 q 541 239 524 271 q 565 194 557 208 q 589 145 572 181 q 610 100 606 109 q 634 49 614 92 q 656 0 653 7 l 804 0 q 673 266 734 154 q 532 479 612 377 q 695 568 633 502 q 756 746 756 634 q 695 916 756 857 q 542 993 634 975 q 323 1011 449 1011 z "},"S":{"ha":833,"x_min":96,"x_max":715,"o":"m 144 177 q 402 88 252 88 q 528 138 484 88 q 572 267 572 188 q 526 388 572 347 q 415 455 480 429 l 374 471 q 215 549 259 517 q 150 608 170 581 q 102 762 102 670 q 188 959 102 888 q 410 1029 274 1029 q 676 954 581 1029 l 629 856 q 416 924 541 924 q 289 881 336 924 q 242 759 242 837 q 328 630 242 680 q 427 586 361 612 q 559 526 493 560 q 670 432 625 491 q 715 281 715 373 q 630 59 715 136 q 399 -17 546 -17 q 96 64 217 -17 l 144 177 z "},"T":{"ha":833,"x_min":64,"x_max":766,"o":"m 766 1011 l 766 912 l 478 912 l 478 0 l 351 0 l 351 912 l 64 912 l 64 1011 l 766 1011 z "},"U":{"ha":833,"x_min":87,"x_max":745,"o":"m 668 65 q 629 24 668 65 q 416 -17 590 -17 q 165 65 243 -17 q 87 328 87 147 l 87 1011 l 214 1011 l 214 332 q 256 149 214 209 q 416 88 297 88 q 577 149 536 88 q 618 332 618 209 l 618 1011 l 745 1011 l 745 328 q 668 65 745 147 z "},"V":{"ha":833,"x_min":39,"x_max":795,"o":"m 656 1011 l 795 1011 l 490 0 l 342 0 l 39 1011 l 178 1011 l 418 151 l 656 1011 z "},"W":{"ha":833,"x_min":45,"x_max":784,"o":"m 614 142 l 659 1011 l 784 1011 l 705 0 l 549 0 l 425 447 l 292 0 l 138 0 l 45 1011 l 170 1011 l 241 144 l 368 597 l 485 597 l 614 142 z "},"X":{"ha":833,"x_min":49,"x_max":785,"o":"m 76 1011 l 231 1011 l 427 605 l 638 1011 l 779 1011 l 508 517 l 785 0 l 633 0 l 416 425 l 194 0 l 49 0 l 336 517 l 76 1011 z "},"Y":{"ha":833,"x_min":47,"x_max":787,"o":"m 476 0 l 349 0 l 349 402 l 47 1011 l 186 1011 l 414 525 l 644 1011 l 787 1011 l 476 402 l 476 0 z "},"Z":{"ha":833,"x_min":106,"x_max":718,"o":"m 269 99 l 711 99 l 711 0 l 106 0 l 106 97 l 545 912 l 130 912 l 130 1011 l 718 1011 l 718 925 l 269 99 z "},"[":{"ha":833,"x_min":268,"x_max":624,"o":"m 268 -89 l 268 1170 q 271 1173 269 1173 l 620 1173 q 623 1170 623 1173 l 623 1080 q 620 1077 623 1078 l 396 1077 l 396 4 l 621 4 q 624 1 623 3 l 624 -89 q 621 -92 623 -92 l 271 -92 q 268 -89 269 -92 z "},"\\":{"ha":833,"x_min":131,"x_max":734,"o":"m 734 -33 l 612 -33 l 131 1194 l 256 1194 l 734 -33 z "},"]":{"ha":833,"x_min":170,"x_max":526,"o":"m 526 -89 q 522 -92 525 -92 l 173 -92 q 170 -89 170 -92 l 170 1 q 173 4 170 3 l 397 4 l 397 1077 l 174 1077 q 170 1080 171 1078 l 170 1170 q 174 1173 171 1173 l 522 1173 q 526 1170 525 1173 l 526 -89 z "},"^":{"ha":833,"x_min":75,"x_max":879,"o":"m 437 1054 l 513 1054 l 879 405 l 763 405 l 473 928 l 193 405 l 75 405 l 437 1054 z "},"_":{"ha":833,"x_min":3,"x_max":730,"o":"m 3 -201 l 3 -106 l 730 -106 l 730 -201 l 3 -201 z "},"`":{"ha":833,"x_min":283,"x_max":635,"o":"m 444 1156 l 635 860 l 541 860 l 283 1156 l 444 1156 z "},"a":{"ha":833,"x_min":117,"x_max":699,"o":"m 576 166 l 576 356 l 475 342 q 328 312 369 327 q 237 196 237 277 q 270 106 237 140 q 359 73 302 73 q 576 166 485 73 m 576 513 q 441 672 576 672 q 300 657 377 672 q 192 629 223 642 l 163 720 q 427 766 303 766 q 625 710 550 766 q 699 536 699 654 l 699 0 l 597 0 l 581 86 q 469 13 537 42 q 336 -17 401 -17 q 179 40 241 -17 q 117 200 117 96 q 198 351 117 303 q 315 398 253 385 q 477 422 377 410 l 576 434 l 576 513 z "},"b":{"ha":833,"x_min":116,"x_max":755,"o":"m 244 283 q 301 134 256 189 q 439 79 347 79 q 609 209 565 79 q 631 352 631 277 q 627 466 631 426 q 573 616 616 561 q 439 671 530 671 q 254 525 288 671 q 239 394 239 464 q 244 283 239 325 m 239 642 q 465 766 315 766 q 685 658 615 766 q 755 385 755 549 q 654 62 755 170 q 454 -17 581 -17 q 327 14 371 -17 q 239 102 283 45 l 238 0 l 116 0 l 116 1048 l 239 1061 l 239 642 z "},"c":{"ha":833,"x_min":117,"x_max":680,"o":"m 680 49 q 477 -17 608 -17 q 323 15 393 -17 q 210 102 254 47 q 117 376 117 216 q 160 568 117 480 q 285 711 202 656 q 489 766 368 766 q 677 702 610 766 l 646 619 q 470 671 568 671 q 307 587 372 671 q 242 373 242 503 q 307 161 242 243 q 472 78 372 78 q 650 132 573 78 l 680 49 z "},"d":{"ha":833,"x_min":82,"x_max":719,"o":"m 595 376 q 544 611 595 550 q 397 671 492 671 q 227 541 266 671 q 206 370 206 470 q 397 78 206 78 q 595 376 595 78 m 595 642 l 595 1048 l 719 1061 l 719 0 l 595 0 l 595 115 q 382 -17 520 -17 q 154 96 225 -17 q 82 378 82 208 q 186 690 82 583 q 383 766 260 766 q 520 732 467 766 q 595 642 572 697 z "},"e":{"ha":833,"x_min":124,"x_max":720,"o":"m 277 35 q 238 61 277 35 q 162 175 199 87 q 124 373 124 262 q 159 571 124 484 q 263 713 194 659 q 416 767 333 767 q 647 659 574 767 q 720 394 720 551 l 720 353 l 249 353 q 306 158 253 238 q 466 78 359 78 q 665 155 537 85 l 705 71 q 465 -17 617 -17 q 277 35 355 -17 m 602 443 q 442 671 589 671 q 253 443 277 671 l 602 443 z "},"f":{"ha":833,"x_min":140,"x_max":712,"o":"m 458 0 l 334 0 l 334 649 l 140 649 l 140 744 l 334 744 q 345 917 334 881 q 401 1018 367 988 q 640 1075 467 1075 l 712 1075 l 705 980 l 637 980 q 555 975 585 980 q 500 955 524 970 q 458 834 458 928 l 458 744 l 712 744 l 712 649 l 458 649 l 458 0 z "},"g":{"ha":833,"x_min":85,"x_max":732,"o":"m 602 142 q 521 42 579 84 q 391 0 463 0 q 168 110 250 0 q 85 377 85 219 q 191 693 85 589 q 397 766 267 766 q 602 643 527 766 l 606 744 l 732 744 q 726 302 726 578 l 726 103 q 621 -224 726 -137 q 395 -304 547 -287 q 218 -313 320 -313 l 208 -218 q 420 -200 356 -218 q 513 -161 484 -182 q 564 -104 543 -139 q 602 93 602 -40 l 602 142 m 544 613 q 533 626 544 613 q 487 655 522 640 q 405 671 452 671 q 323 655 359 671 q 234 553 259 626 q 210 406 210 479 q 216 296 210 332 q 273 163 228 216 q 399 110 317 110 q 576 227 530 110 q 602 358 602 290 q 597 467 602 427 q 578 547 592 508 q 544 613 565 586 z "},"h":{"ha":833,"x_min":123,"x_max":708,"o":"m 708 449 l 708 0 l 585 0 l 585 433 q 547 622 585 573 q 435 671 510 671 q 303 619 359 671 q 247 506 247 566 l 247 0 l 123 0 l 123 1048 l 247 1061 l 247 654 q 479 766 334 766 q 708 449 708 766 z "},"i":{"ha":833,"x_min":149,"x_max":722,"o":"m 365 940 l 365 1007 q 392 1050 365 1031 q 447 1069 420 1069 q 502 1050 474 1069 q 529 1007 529 1031 l 529 940 q 502 897 529 916 q 447 878 474 878 q 392 897 420 878 q 365 940 365 916 m 173 649 l 173 744 l 509 744 l 509 95 l 722 95 l 722 0 l 149 0 l 149 95 l 385 95 l 385 649 l 173 649 z "},"j":{"ha":833,"x_min":117,"x_max":580,"o":"m 294 -149 q 382 -138 360 -149 q 414 -114 404 -126 q 437 48 437 -81 l 437 649 l 172 649 l 172 744 l 561 744 l 561 86 q 533 -144 561 -87 q 459 -218 506 -200 q 295 -244 393 -244 l 117 -244 l 117 -149 l 294 -149 m 416 940 l 416 1007 q 443 1050 416 1031 q 498 1069 471 1069 q 552 1050 525 1069 q 580 1007 580 1031 l 580 940 q 552 897 580 916 q 498 878 525 878 q 443 897 471 878 q 416 940 416 916 z "},"k":{"ha":833,"x_min":142,"x_max":797,"o":"m 266 442 l 595 744 l 751 744 l 420 435 l 797 0 l 642 0 l 332 378 l 266 320 l 266 0 l 142 0 l 142 1048 l 266 1061 l 266 442 z "},"l":{"ha":833,"x_min":93,"x_max":711,"o":"m 705 0 l 606 0 q 419 27 475 0 q 368 63 387 43 q 315 294 317 115 l 315 966 l 93 966 l 93 1061 l 439 1061 l 439 300 q 464 134 439 165 q 526 99 488 104 q 602 95 563 95 l 711 95 l 705 0 z "},"m":{"ha":833,"x_min":68,"x_max":773,"o":"m 453 651 q 610 766 498 766 q 770 562 751 766 q 773 477 773 524 l 773 0 l 660 0 l 660 463 q 642 628 660 596 q 610 666 625 661 q 578 671 595 671 q 493 605 518 671 q 477 461 477 562 l 477 0 l 373 0 l 373 454 q 338 648 373 604 q 285 671 319 671 q 227 642 251 671 q 181 489 181 586 l 181 0 l 68 0 l 68 744 l 166 744 l 174 646 q 228 731 193 696 q 314 766 262 766 q 402 736 366 766 q 453 651 439 705 z "},"n":{"ha":833,"x_min":133,"x_max":715,"o":"m 484 766 q 715 473 715 766 l 715 0 l 591 0 l 591 458 q 583 571 591 537 q 559 627 575 605 q 446 671 524 671 q 311 625 366 671 q 256 503 256 579 l 256 0 l 133 0 l 133 744 l 246 744 l 253 663 q 484 766 327 766 z "},"o":{"ha":833,"x_min":94,"x_max":740,"o":"m 415 78 q 591 207 545 78 q 616 349 616 276 q 611 463 616 422 q 552 613 599 555 q 415 671 506 671 q 243 540 289 671 q 218 392 218 469 q 261 166 218 255 q 415 78 304 78 m 659 658 q 700 604 659 658 q 740 374 740 549 q 652 91 740 199 q 415 -17 565 -17 q 273 14 335 -17 q 172 98 210 44 q 94 378 94 205 q 180 659 94 551 q 422 766 266 766 q 659 658 578 766 z "},"p":{"ha":833,"x_min":108,"x_max":751,"o":"m 230 376 q 439 78 230 78 q 627 376 627 78 q 576 607 627 542 q 437 671 526 671 q 236 471 263 671 q 230 376 230 429 m 444 -17 q 316 16 372 -17 q 231 102 260 50 l 231 -286 l 108 -299 l 108 744 l 231 744 l 231 642 q 318 732 264 697 q 441 766 372 766 q 702 614 625 766 q 751 385 751 518 q 648 62 751 173 q 444 -17 575 -17 z "},"q":{"ha":833,"x_min":72,"x_max":739,"o":"m 615 376 q 397 671 615 671 q 196 376 196 671 q 317 95 196 155 q 404 78 352 78 q 500 102 456 78 q 568 168 543 125 q 615 376 615 250 m 615 642 l 615 744 l 739 744 l 739 -286 l 616 -299 l 615 102 q 517 14 572 45 q 383 -17 463 -17 q 243 15 304 -17 q 146 103 182 47 q 72 382 72 217 q 151 657 72 548 q 383 766 229 766 q 522 734 467 766 q 615 642 576 703 z "},"r":{"ha":833,"x_min":245,"x_max":703,"o":"m 368 0 l 245 0 l 245 744 l 346 744 l 356 606 q 475 726 401 685 q 643 766 549 766 l 703 766 l 703 652 l 625 652 q 437 592 507 652 q 368 414 368 533 l 368 0 z "},"s":{"ha":833,"x_min":165,"x_max":692,"o":"m 507 422 q 648 347 604 399 q 692 198 692 296 q 618 42 692 101 q 432 -17 544 -17 q 277 3 352 -17 q 165 50 201 23 l 196 139 q 286 103 224 121 q 420 85 348 85 q 535 116 492 85 q 578 196 578 146 q 557 275 578 246 q 475 319 536 304 l 349 349 q 203 428 239 376 q 168 557 168 480 q 230 700 168 635 q 413 766 293 765 l 422 766 q 652 715 557 766 l 625 629 q 424 671 526 671 q 320 639 361 670 q 280 562 280 608 q 300 491 280 515 q 378 454 321 468 l 507 422 z "},"t":{"ha":833,"x_min":62,"x_max":715,"o":"m 395 649 l 395 300 q 402 197 395 235 q 431 135 410 159 q 486 103 452 111 q 578 95 520 95 l 715 95 l 708 0 l 583 0 q 328 71 391 0 q 277 219 286 117 q 272 331 272 264 l 272 649 l 62 649 l 75 744 l 272 744 l 272 1000 l 395 1037 l 395 744 l 709 744 l 709 649 l 395 649 z "},"u":{"ha":833,"x_min":130,"x_max":705,"o":"m 705 241 q 417 -17 705 -17 q 130 241 130 -17 l 130 744 l 253 744 l 253 231 q 292 115 253 151 q 417 78 332 78 q 542 115 503 78 q 581 231 581 151 l 581 744 l 705 744 l 705 241 z "},"v":{"ha":833,"x_min":59,"x_max":774,"o":"m 419 128 q 637 744 478 289 l 774 744 l 484 0 l 347 0 l 59 744 l 201 744 l 419 128 z "},"w":{"ha":833,"x_min":16,"x_max":817,"o":"m 288 0 l 161 0 l 16 744 l 140 744 l 229 170 l 353 744 l 500 744 l 622 172 l 700 744 l 817 744 l 680 0 l 550 0 l 426 646 l 288 0 z "},"x":{"ha":833,"x_min":95,"x_max":739,"o":"m 107 744 l 248 744 l 425 458 l 602 744 l 730 744 l 502 383 l 739 0 l 602 0 l 420 296 l 231 0 l 95 0 l 339 380 l 107 744 z "},"y":{"ha":833,"x_min":67,"x_max":768,"o":"m 437 141 l 633 744 l 768 744 q 525 66 562 162 q 474 -64 488 -30 q 444 -136 460 -99 q 404 -202 427 -172 q 360 -247 380 -233 q 295 -274 339 -262 q 130 -287 250 -287 l 115 -183 q 223 -179 205 -183 q 258 -170 241 -175 q 282 -158 274 -165 q 302 -139 290 -151 q 372 16 334 -109 q 96 670 181 456 l 67 744 l 201 744 l 437 141 z "},"z":{"ha":833,"x_min":138,"x_max":673,"o":"m 151 744 l 648 744 l 648 650 l 273 95 l 673 94 l 673 0 l 138 0 l 138 96 l 506 649 l 151 649 l 151 744 z "},"{":{"ha":833,"x_min":153,"x_max":747,"o":"m 349 309 q 294 432 349 388 q 153 481 239 475 l 153 572 q 294 621 240 578 q 349 744 349 665 l 349 902 q 404 1096 349 1036 q 590 1157 459 1157 l 592 1157 l 747 1156 l 747 1064 l 592 1064 q 523 1035 547 1064 q 499 902 499 1006 l 499 739 q 434 579 499 628 q 332 526 399 552 q 469 437 439 484 q 499 315 499 390 l 499 151 q 522 19 499 49 q 592 -12 545 -12 l 747 -12 l 747 -103 l 592 -104 l 590 -104 q 404 -43 459 -104 q 349 151 349 18 l 349 309 z "},"|":{"ha":833,"x_min":359,"x_max":469,"o":"m 359 -299 l 359 1075 l 469 1075 l 469 -299 l 359 -299 z "},"}":{"ha":833,"x_min":137,"x_max":732,"o":"m 536 744 q 590 621 536 665 q 732 572 644 578 l 732 481 q 590 432 645 475 q 536 309 536 388 l 536 151 q 480 -43 536 18 q 294 -104 425 -104 l 292 -104 l 137 -103 l 137 -12 l 292 -12 q 378 56 363 -12 q 385 151 385 90 l 385 315 q 427 453 385 412 q 551 526 469 494 q 414 617 444 569 q 385 739 385 665 l 385 902 q 375 1009 385 988 q 355 1042 366 1029 q 292 1064 337 1064 l 137 1064 l 137 1156 l 292 1157 l 294 1157 q 480 1096 425 1157 q 536 902 536 1036 l 536 744 z "},"~":{"ha":833,"x_min":103,"x_max":903,"o":"m 903 751 q 895 715 898 727 q 844 586 876 623 q 735 530 798 530 q 583 564 673 530 q 309 661 338 661 q 227 532 245 661 l 103 572 q 212 762 133 717 q 280 780 245 780 q 360 769 316 780 q 441 742 404 758 q 506 716 478 727 l 543 701 q 690 650 666 650 q 727 659 715 650 q 774 757 761 682 q 779 780 778 777 l 903 751 z "}," ":{"ha":833,"x_min":0,"x_max":0,"o":""},"¡":{"ha":833,"x_min":330,"x_max":490,"o":"m 490 803 l 490 650 l 330 650 l 330 803 l 490 803 m 368 -283 l 368 511 l 485 511 l 485 -283 l 368 -283 z "},"¢":{"ha":833,"x_min":117,"x_max":680,"o":"m 510 -188 l 423 -188 l 423 -14 q 293 32 351 -4 q 196 120 234 67 q 117 375 117 230 q 198 631 117 520 q 295 718 237 683 q 423 763 353 753 l 423 928 l 510 928 l 510 765 q 677 702 621 756 l 646 619 q 510 669 584 661 l 510 79 q 650 132 586 87 l 680 49 q 510 -16 620 -7 l 510 -188 m 423 85 l 423 665 q 292 565 342 645 q 242 374 242 486 q 290 184 242 262 q 423 85 338 106 z "},"£":{"ha":833,"x_min":81,"x_max":704,"o":"m 651 911 q 513 962 596 962 q 386 909 429 962 q 342 697 342 856 l 345 612 l 593 612 l 593 513 l 347 513 l 347 410 q 312 155 347 227 q 272 104 296 123 l 704 104 l 704 0 l 81 0 l 81 102 q 152 152 124 126 q 218 324 218 213 l 218 513 l 81 513 l 81 612 l 217 612 q 212 708 212 652 q 307 1001 212 910 q 505 1066 374 1066 q 617 1049 576 1066 q 690 999 659 1031 l 651 911 z "},"¤":{"ha":833,"x_min":26,"x_max":810,"o":"m 220 857 q 419 933 304 933 q 618 855 534 933 l 779 1004 l 810 966 l 651 819 q 713 638 713 739 q 652 458 713 538 l 810 311 l 779 273 l 618 422 q 418 343 533 343 q 220 420 304 343 l 62 273 l 26 308 l 186 456 q 123 638 123 536 q 186 821 123 740 l 26 969 l 62 1004 l 220 857 m 253 804 q 219 769 253 804 q 184 638 184 735 q 253 473 184 541 q 418 404 321 404 q 584 473 515 404 q 652 638 652 541 q 584 804 652 735 q 418 872 515 872 q 253 804 321 872 z "},"¥":{"ha":833,"x_min":53,"x_max":905,"o":"m 414 0 l 414 208 l 116 208 l 108 311 l 414 311 l 414 422 l 111 422 l 111 528 l 387 528 l 53 1045 l 207 1045 q 327 849 235 1000 q 485 586 420 698 l 764 1045 l 905 1045 l 563 528 l 836 528 l 836 422 l 543 422 l 543 311 l 838 311 l 838 208 l 545 208 l 545 0 l 414 0 z "},"¦":{"ha":833,"x_min":366,"x_max":482,"o":"m 366 1137 l 482 1137 l 482 498 l 366 498 l 366 1137 m 366 290 l 482 290 l 482 -361 l 366 -361 l 366 290 z "},"§":{"ha":833,"x_min":165,"x_max":710,"o":"m 469 403 q 566 490 547 449 q 576 533 576 510 q 563 576 576 557 q 528 610 551 596 q 485 634 506 625 q 436 655 464 644 q 397 672 409 666 q 298 547 298 620 q 416 424 298 473 q 445 413 427 420 q 469 403 463 406 m 306 719 q 192 894 192 785 q 275 1051 192 1003 q 479 1099 357 1099 q 650 1069 547 1099 l 651 960 q 482 999 562 999 q 321 902 321 999 q 454 762 321 815 q 525 735 467 758 q 631 682 584 713 q 710 543 710 629 q 668 431 710 474 q 571 354 626 387 q 692 186 692 292 q 667 87 692 130 q 597 18 641 43 q 393 -35 509 -35 q 185 3 277 -35 l 184 113 q 370 66 286 66 q 492 84 454 66 q 562 179 562 117 q 446 296 562 251 q 390 316 427 303 q 296 356 353 330 q 202 426 239 382 q 165 538 165 470 q 208 648 165 607 q 306 719 250 689 z "},"¨":{"ha":833,"x_min":224,"x_max":650,"o":"m 519 867 q 525 989 525 938 q 650 982 591 982 q 642 860 642 924 q 519 867 576 867 m 224 982 q 349 989 282 982 q 356 867 349 930 q 231 860 295 867 q 224 982 231 919 z "},"©":{"ha":833,"x_min":4,"x_max":1216,"o":"m 837 725 q 638 795 755 795 q 454 725 522 795 q 385 539 385 654 l 387 539 q 457 351 387 422 q 646 280 528 280 q 833 338 764 280 l 863 250 q 632 183 769 183 q 480 213 549 183 q 366 293 410 243 q 271 537 271 397 q 302 689 271 621 q 384 800 332 757 q 631 889 492 889 q 861 814 770 889 l 837 725 m 611 1006 q 537 1006 611 1006 q 346 945 463 1006 q 164 780 229 884 q 99 551 99 676 q 313 144 99 285 q 594 62 438 62 q 810 99 711 62 q 977 198 909 135 q 1082 348 1044 261 q 1119 529 1119 434 q 1088 703 1119 624 q 896 926 1033 846 q 611 1006 760 1006 m 1216 534 q 1036 133 1216 288 q 613 -23 855 -23 q 300 52 435 -23 q 85 254 166 127 q 4 534 4 380 q 187 936 4 780 q 609 1092 370 1092 q 919 1017 787 1092 q 1134 814 1052 941 q 1215 534 1215 687 l 1216 534 z "},"ª":{"ha":833,"x_min":187,"x_max":645,"o":"m 393 641 q 502 684 463 641 q 541 799 541 728 l 541 817 q 448 808 519 813 q 334 784 376 803 q 291 720 291 766 q 393 641 291 641 m 641 909 l 638 736 q 645 578 638 653 l 547 578 l 542 633 q 376 566 488 566 q 241 605 296 566 q 187 725 187 645 q 260 842 187 806 q 415 879 317 870 q 541 892 513 888 q 517 982 541 957 q 429 1008 493 1008 q 272 939 317 1008 l 222 994 q 435 1088 277 1088 q 586 1043 532 1088 q 641 909 641 999 z "},"«":{"ha":833,"x_min":134,"x_max":736,"o":"m 736 673 l 538 399 l 730 125 l 613 125 l 412 399 l 617 673 l 736 673 m 460 673 l 262 399 l 453 125 l 336 125 l 134 399 l 340 673 l 460 673 z "},"¬":{"ha":833,"x_min":103,"x_max":889,"o":"m 777 485 l 103 485 l 103 587 l 889 587 l 889 175 l 777 175 l 777 485 z "},"­":{"ha":833,"x_min":0,"x_max":0,"o":""},"®":{"ha":833,"x_min":4,"x_max":1216,"o":"m 485 575 q 582 575 485 575 q 718 585 683 575 q 787 677 787 606 q 647 788 787 788 l 485 788 l 485 575 m 791 201 q 746 281 780 221 q 676 397 713 341 q 589 489 640 452 l 487 489 l 487 201 l 376 201 l 376 878 l 580 878 l 579 877 q 876 784 810 877 q 903 688 903 745 q 846 559 903 606 q 704 502 790 512 q 811 372 760 448 q 918 201 861 296 l 791 201 m 241 869 q 208 838 241 869 q 137 720 174 806 q 99 537 99 633 q 130 362 99 441 q 326 140 186 218 q 629 61 465 61 q 832 100 739 61 q 987 202 926 138 q 1084 348 1049 267 q 1119 518 1119 429 q 1091 687 1119 608 q 910 920 1040 835 q 625 1005 780 1005 q 408 969 507 1005 q 241 869 309 932 m 1216 532 q 1035 131 1216 287 q 605 -25 854 -25 q 300 50 435 -25 q 85 252 166 125 q 4 533 4 378 q 187 934 4 777 q 609 1090 370 1090 q 920 1015 787 1090 q 1134 812 1053 940 q 1215 532 1215 685 l 1216 532 z "},"¯":{"ha":833,"x_min":186,"x_max":647,"o":"m 186 1017 l 186 1112 l 647 1112 l 647 1017 l 186 1017 z "},"°":{"ha":833,"x_min":203,"x_max":682,"o":"m 682 846 q 611 691 682 753 q 440 630 541 630 q 271 697 340 630 q 203 852 203 764 q 274 1002 203 941 q 443 1063 345 1063 q 568 1030 512 1063 q 653 949 624 998 q 682 846 682 900 m 339 752 q 361 734 339 752 q 443 715 382 715 q 546 752 504 715 q 589 848 589 790 q 546 942 589 905 q 443 978 503 978 q 340 941 382 978 q 297 847 297 905 q 339 752 297 790 z "},"±":{"ha":833,"x_min":103,"x_max":890,"o":"m 103 102 l 890 102 l 890 0 l 103 0 l 103 102 m 437 814 l 549 814 l 549 539 l 888 539 l 888 437 l 551 437 l 551 164 l 439 164 l 439 437 l 103 437 l 103 539 l 437 539 l 437 814 z "},"²":{"ha":833,"x_min":212,"x_max":621,"o":"m 216 935 q 292 1025 241 989 q 423 1061 342 1061 q 562 1019 503 1061 q 621 888 621 977 q 539 709 621 799 q 451 620 486 650 q 408 583 416 590 q 376 555 399 575 q 349 532 353 536 l 621 532 l 621 445 l 212 445 l 212 526 q 262 572 229 542 q 525 892 525 803 l 526 892 q 496 953 526 932 q 421 974 467 974 q 281 878 327 974 l 216 935 z "},"³":{"ha":833,"x_min":212,"x_max":621,"o":"m 257 574 q 393 516 320 516 l 393 515 q 487 541 450 515 q 524 615 524 566 q 363 714 524 714 l 321 713 l 321 801 q 435 809 400 801 q 506 890 506 825 q 400 972 506 972 q 256 916 330 972 l 212 986 q 392 1061 293 1061 q 548 1014 490 1061 q 606 885 606 968 q 525 760 606 803 q 621 614 621 718 q 556 480 621 529 q 388 431 491 431 q 212 503 286 431 l 257 574 z "},"´":{"ha":833,"x_min":283,"x_max":618,"o":"m 283 860 l 460 1156 l 618 1156 l 380 860 l 283 860 z "},"µ":{"ha":833,"x_min":133,"x_max":715,"o":"m 256 33 l 256 -200 l 133 -200 l 133 744 l 256 744 l 256 286 q 264 173 256 207 q 289 117 273 139 q 402 73 323 73 q 536 119 481 73 q 591 241 591 165 l 591 744 l 715 744 l 715 0 l 602 0 l 595 81 q 364 -15 521 -15 q 256 33 302 -15 z "},"¶":{"ha":833,"x_min":45,"x_max":722,"o":"m 45 832 q 316 1062 45 1033 q 432 1068 369 1068 l 722 1068 l 722 977 l 657 977 l 657 -109 l 559 -109 l 559 977 l 404 977 l 404 -109 l 297 -109 l 297 578 q 116 651 186 580 q 45 832 45 722 z "},"·":{"ha":833,"x_min":330,"x_max":494,"o":"m 330 378 l 330 532 l 494 532 l 494 378 l 330 378 z "},"¸":{"ha":833,"x_min":290,"x_max":602,"o":"m 410 -230 q 496 -177 496 -230 q 413 -124 496 -124 q 362 -127 408 -124 l 386 13 l 459 13 l 446 -66 l 452 -66 q 561 -92 519 -66 q 602 -176 602 -119 q 418 -290 602 -290 q 290 -275 367 -290 l 296 -212 q 410 -230 372 -230 z "},"¹":{"ha":833,"x_min":269,"x_max":565,"o":"m 382 937 q 269 886 328 909 l 269 981 q 395 1040 334 1003 l 473 1050 l 473 530 l 565 530 l 565 445 l 292 445 l 292 532 l 382 532 l 382 937 z "},"º":{"ha":833,"x_min":191,"x_max":732,"o":"m 296 826 q 296 784 296 826 q 340 694 296 743 q 462 644 384 644 q 584 694 540 644 q 629 826 629 744 q 586 958 629 908 q 463 1008 543 1008 q 340 958 383 1008 q 296 826 296 908 m 732 827 q 732 767 732 827 q 659 636 732 707 q 462 565 585 565 q 264 635 338 565 q 191 825 191 705 q 266 1016 191 946 q 464 1086 340 1086 q 660 1017 587 1086 q 732 827 732 947 z "},"»":{"ha":833,"x_min":134,"x_max":757,"o":"m 431 125 l 628 399 l 437 673 l 554 673 l 757 399 l 549 125 l 431 125 m 134 125 l 332 399 l 138 673 l 258 673 l 460 399 l 253 125 l 134 125 z "},"¼":{"ha":833,"x_min":16,"x_max":1099,"o":"m 918 245 q 917 387 918 245 q 918 492 917 421 l 740 245 l 918 245 m 130 937 q 16 886 68 904 l 16 981 q 142 1040 79 1002 l 221 1050 l 221 530 l 313 530 l 313 445 l 39 445 l 39 532 l 130 532 l 130 937 m 277 1 l 164 1 l 844 1058 l 955 1058 l 277 1 m 918 166 l 635 166 l 635 234 l 909 614 l 1010 614 l 1010 245 l 1092 245 l 1099 166 l 1008 166 l 1008 1 l 918 28 l 918 166 z "},"½":{"ha":833,"x_min":1,"x_max":1031,"o":"m 116 937 q 1 886 64 910 l 2 981 q 127 1040 70 1004 l 206 1050 l 206 530 l 298 530 l 298 445 l 24 445 l 24 532 l 116 532 l 116 937 m 219 1 l 106 1 l 787 1058 l 897 1058 l 219 1 m 627 473 q 701 562 651 526 q 832 597 751 597 q 972 556 913 597 q 1031 425 1031 515 q 948 244 1031 336 q 826 126 887 176 q 758 68 766 76 l 1031 68 l 1031 -18 l 620 -18 l 620 64 q 699 134 639 81 q 817 245 759 187 q 905 354 876 304 q 935 429 935 405 l 936 429 q 906 491 936 470 q 830 511 876 511 q 690 415 738 511 l 627 473 z "},"¾":{"ha":833,"x_min":14,"x_max":1119,"o":"m 937 246 l 937 345 q 938 492 937 444 l 759 246 l 937 246 m 58 574 q 195 516 123 516 l 195 515 q 288 541 251 515 q 326 615 326 566 q 165 714 326 714 l 123 713 l 123 801 q 237 809 203 801 q 307 890 307 826 q 202 972 307 972 q 58 916 132 972 l 14 986 q 192 1061 93 1061 q 349 1014 292 1061 q 407 885 407 968 q 326 760 407 802 q 423 614 423 718 q 358 480 423 529 q 190 431 292 431 q 14 503 88 431 l 58 574 m 310 -1 l 197 -1 l 877 1057 l 988 1057 l 310 -1 m 938 168 l 654 168 l 654 235 l 928 616 l 1029 616 l 1029 246 l 1112 246 l 1119 168 l 1028 168 l 1028 -1 l 938 30 l 938 168 z "},"¿":{"ha":833,"x_min":114,"x_max":650,"o":"m 542 1088 l 542 933 l 378 933 l 378 1088 l 542 1088 m 469 -9 q 141 126 215 -9 q 114 235 114 177 q 136 339 114 294 q 191 419 158 385 q 262 488 223 452 q 333 555 300 524 q 410 703 410 627 q 397 809 410 745 l 520 809 q 528 694 528 748 l 528 694 q 474 550 528 612 q 385 467 437 509 q 307 399 333 425 q 241 252 241 332 q 377 104 241 134 q 461 96 416 96 q 650 146 557 96 l 650 39 q 469 -9 550 -9 z "},"À":{"ha":833,"x_min":46,"x_max":787,"o":"m 46 0 m 300 428 l 532 428 l 418 867 l 300 428 m 488 1011 l 787 0 l 654 0 l 558 326 l 274 326 l 179 0 l 46 0 l 345 1011 l 488 1011 m 271 1407 l 463 1111 l 369 1111 l 111 1407 l 271 1407 z "},"Á":{"ha":833,"x_min":46,"x_max":787,"o":"m 46 0 m 300 428 l 532 428 l 418 867 l 300 428 m 488 1011 l 787 0 l 654 0 l 558 326 l 274 326 l 179 0 l 46 0 l 345 1011 l 488 1011 m 368 1111 l 545 1407 l 703 1407 l 465 1111 l 368 1111 z "},"Â":{"ha":833,"x_min":46,"x_max":787,"o":"m 46 0 m 300 428 l 532 428 l 418 867 l 300 428 m 488 1011 l 787 0 l 654 0 l 558 326 l 274 326 l 179 0 l 46 0 l 345 1011 l 488 1011 m 473 1348 l 648 1111 l 551 1111 l 413 1270 l 276 1111 l 184 1111 l 359 1348 l 473 1348 z "},"Ã":{"ha":833,"x_min":46,"x_max":787,"o":"m 46 0 m 300 428 l 532 428 l 418 867 l 300 428 m 488 1011 l 787 0 l 654 0 l 558 326 l 274 326 l 179 0 l 46 0 l 345 1011 l 488 1011 m 243 1120 l 151 1120 q 193 1242 152 1198 q 300 1286 233 1286 q 422 1247 368 1286 q 533 1207 477 1207 q 588 1278 583 1207 l 682 1278 q 640 1157 677 1203 q 536 1111 602 1111 q 417 1150 470 1111 q 306 1190 365 1190 q 243 1120 246 1190 z "},"Ä":{"ha":833,"x_min":46,"x_max":787,"o":"m 46 0 m 300 428 l 532 428 l 418 867 l 300 428 m 488 1011 l 787 0 l 654 0 l 558 326 l 274 326 l 179 0 l 46 0 l 345 1011 l 488 1011 m 498 1118 q 505 1240 505 1189 q 629 1233 571 1233 q 621 1111 621 1175 q 498 1118 556 1118 m 203 1233 q 328 1240 262 1233 q 336 1118 328 1181 q 211 1111 275 1118 q 203 1233 211 1170 z "},"Å":{"ha":833,"x_min":46,"x_max":787,"o":"m 46 0 m 300 428 l 532 428 l 418 867 l 300 428 m 488 1011 l 787 0 l 654 0 l 558 326 l 274 326 l 179 0 l 46 0 l 345 1011 l 488 1011 m 416 1299 q 449 1299 416 1299 q 528 1260 482 1299 q 574 1160 574 1221 q 528 1059 574 1099 q 416 1019 481 1019 q 305 1058 351 1019 q 258 1160 258 1097 q 304 1261 258 1222 q 416 1299 351 1299 m 500 1157 q 500 1174 500 1157 q 477 1214 500 1191 q 420 1236 455 1236 q 359 1216 385 1236 q 333 1161 333 1196 q 353 1104 333 1127 q 410 1082 374 1082 q 473 1102 446 1082 q 500 1157 500 1123 z "},"Æ":{"ha":833,"x_min":18,"x_max":810,"o":"m 469 401 l 469 922 l 299 401 l 469 401 m 415 1066 l 790 1066 l 782 957 l 591 957 l 591 597 l 800 597 l 791 489 l 591 489 l 591 102 l 810 102 l 802 0 l 469 0 l 469 292 l 258 292 l 159 0 l 18 0 l 415 1066 z "},"Ç":{"ha":833,"x_min":84,"x_max":766,"o":"m 84 0 m 765 943 l 720 854 q 525 924 630 924 q 351 865 420 924 q 217 507 217 751 q 252 296 217 390 q 354 145 286 201 q 513 88 422 88 q 722 161 632 88 l 766 66 q 498 -17 671 -17 q 279 51 374 -17 q 134 238 184 119 q 84 491 84 357 q 116 723 84 625 q 203 888 148 821 q 334 991 258 954 q 498 1028 410 1028 q 765 943 667 1028 m 488 -250 q 574 -197 574 -250 q 492 -144 574 -144 q 441 -147 487 -144 l 465 -7 l 538 -7 l 524 -86 l 530 -85 q 639 -112 597 -85 q 681 -196 681 -138 q 497 -310 681 -310 q 369 -294 446 -310 l 375 -232 q 488 -250 450 -250 z "},"È":{"ha":833,"x_min":144,"x_max":751,"o":"m 144 0 m 274 464 l 274 99 l 751 99 l 741 0 l 147 0 l 147 1011 l 729 1011 l 718 912 l 274 912 l 274 572 l 696 572 l 696 464 l 274 464 m 304 1407 l 496 1111 l 402 1111 l 144 1407 l 304 1407 z "},"É":{"ha":833,"x_min":147,"x_max":751,"o":"m 147 0 m 274 464 l 274 99 l 751 99 l 741 0 l 147 0 l 147 1011 l 729 1011 l 718 912 l 274 912 l 274 572 l 696 572 l 696 464 l 274 464 m 401 1111 l 578 1407 l 736 1407 l 498 1111 l 401 1111 z "},"Ê":{"ha":833,"x_min":147,"x_max":751,"o":"m 147 0 m 274 464 l 274 99 l 751 99 l 741 0 l 147 0 l 147 1011 l 729 1011 l 718 912 l 274 912 l 274 572 l 696 572 l 696 464 l 274 464 m 506 1348 l 682 1111 l 585 1111 l 446 1270 l 309 1111 l 217 1111 l 393 1348 l 506 1348 z "},"Ë":{"ha":833,"x_min":147,"x_max":751,"o":"m 147 0 m 274 464 l 274 99 l 751 99 l 741 0 l 147 0 l 147 1011 l 729 1011 l 718 912 l 274 912 l 274 572 l 696 572 l 696 464 l 274 464 m 531 1118 q 537 1240 537 1189 q 662 1233 604 1233 q 654 1111 654 1175 q 531 1118 589 1118 m 236 1233 q 361 1240 294 1233 q 368 1118 361 1181 q 243 1111 307 1118 q 236 1233 243 1170 z "},"Ì":{"ha":833,"x_min":112,"x_max":702,"o":"m 112 0 m 132 912 l 132 1011 l 702 1011 l 702 912 l 477 912 l 477 99 l 702 99 l 702 0 l 132 0 l 132 99 l 351 99 l 351 912 l 132 912 m 272 1407 l 464 1111 l 370 1111 l 112 1407 l 272 1407 z "},"Í":{"ha":833,"x_min":132,"x_max":703,"o":"m 132 0 m 132 912 l 132 1011 l 702 1011 l 702 912 l 477 912 l 477 99 l 702 99 l 702 0 l 132 0 l 132 99 l 351 99 l 351 912 l 132 912 m 369 1111 l 546 1407 l 703 1407 l 465 1111 l 369 1111 z "},"Î":{"ha":833,"x_min":132,"x_max":702,"o":"m 132 0 m 132 912 l 132 1011 l 702 1011 l 702 912 l 477 912 l 477 99 l 702 99 l 702 0 l 132 0 l 132 99 l 351 99 l 351 912 l 132 912 m 473 1348 l 649 1111 l 552 1111 l 414 1270 l 277 1111 l 184 1111 l 360 1348 l 473 1348 z "},"Ï":{"ha":833,"x_min":132,"x_max":702,"o":"m 132 0 m 132 912 l 132 1011 l 702 1011 l 702 912 l 477 912 l 477 99 l 702 99 l 702 0 l 132 0 l 132 99 l 351 99 l 351 912 l 132 912 m 498 1118 q 505 1240 505 1189 q 629 1233 571 1233 q 621 1111 621 1175 q 498 1118 556 1118 m 203 1233 q 328 1240 262 1233 q 336 1118 328 1181 q 211 1111 275 1118 q 203 1233 211 1170 z "},"Ð":{"ha":833,"x_min":0,"x_max":1074,"o":"m 471 109 q 812 216 688 109 q 937 530 937 323 q 731 907 937 814 q 398 963 606 963 l 275 963 l 275 585 l 429 585 l 429 484 l 275 484 l 275 109 l 471 109 m 382 1072 q 949 901 783 1072 q 1074 533 1074 770 q 1028 300 1074 402 q 900 132 983 197 q 458 0 732 0 l 146 0 l 146 484 l 0 484 l 0 585 l 146 585 l 146 1072 l 382 1072 z "},"Ñ":{"ha":833,"x_min":102,"x_max":731,"o":"m 102 0 m 731 0 l 582 0 l 217 818 l 217 0 l 102 0 l 102 1011 l 248 1011 l 618 196 l 618 1011 l 731 1011 l 731 0 m 243 1120 l 151 1120 q 193 1242 152 1198 q 300 1286 233 1286 q 422 1247 368 1286 q 533 1207 477 1207 q 588 1278 583 1207 l 682 1278 q 640 1157 677 1203 q 536 1111 602 1111 q 417 1150 470 1111 q 306 1190 365 1190 q 243 1120 246 1190 z "},"Ò":{"ha":833,"x_min":83,"x_max":749,"o":"m 83 0 m 527 868 q 504 896 527 868 q 416 924 481 924 q 306 868 352 924 q 238 718 260 811 q 216 506 216 625 q 238 294 216 387 q 306 144 260 201 q 416 88 352 88 q 527 144 481 88 q 595 294 573 201 q 616 506 616 387 q 595 718 616 625 q 527 868 573 811 m 565 25 q 532 4 565 25 q 416 -17 500 -17 q 268 25 333 -17 q 163 141 203 68 q 83 507 83 288 q 190 918 83 777 q 285 998 227 968 q 416 1028 343 1028 q 548 998 490 1028 q 702 809 654 944 q 749 507 749 675 q 670 141 749 288 q 565 25 630 68 m 271 1407 l 463 1111 l 369 1111 l 111 1407 l 271 1407 z "},"Ó":{"ha":833,"x_min":83,"x_max":749,"o":"m 83 0 m 527 868 q 504 896 527 868 q 416 924 481 924 q 306 868 352 924 q 238 718 260 811 q 216 506 216 625 q 238 294 216 387 q 306 144 260 201 q 416 88 352 88 q 527 144 481 88 q 595 294 573 201 q 616 506 616 387 q 595 718 616 625 q 527 868 573 811 m 565 25 q 532 4 565 25 q 416 -17 500 -17 q 268 25 333 -17 q 163 141 203 68 q 83 507 83 288 q 190 918 83 777 q 285 998 227 968 q 416 1028 343 1028 q 548 998 490 1028 q 702 809 654 944 q 749 507 749 675 q 670 141 749 288 q 565 25 630 68 m 368 1111 l 545 1407 l 703 1407 l 465 1111 l 368 1111 z "},"Ô":{"ha":833,"x_min":83,"x_max":749,"o":"m 83 0 m 527 868 q 504 896 527 868 q 416 924 481 924 q 306 868 352 924 q 238 718 260 811 q 216 506 216 625 q 238 294 216 387 q 306 144 260 201 q 416 88 352 88 q 527 144 481 88 q 595 294 573 201 q 616 506 616 387 q 595 718 616 625 q 527 868 573 811 m 565 25 q 532 4 565 25 q 416 -17 500 -17 q 268 25 333 -17 q 163 141 203 68 q 83 507 83 288 q 190 918 83 777 q 285 998 227 968 q 416 1028 343 1028 q 548 998 490 1028 q 702 809 654 944 q 749 507 749 675 q 670 141 749 288 q 565 25 630 68 m 473 1348 l 648 1111 l 551 1111 l 413 1270 l 276 1111 l 184 1111 l 359 1348 l 473 1348 z "},"Õ":{"ha":833,"x_min":83,"x_max":749,"o":"m 83 0 m 527 868 q 504 896 527 868 q 416 924 481 924 q 306 868 352 924 q 238 718 260 811 q 216 506 216 625 q 238 294 216 387 q 306 144 260 201 q 416 88 352 88 q 527 144 481 88 q 595 294 573 201 q 616 506 616 387 q 595 718 616 625 q 527 868 573 811 m 565 25 q 532 4 565 25 q 416 -17 500 -17 q 268 25 333 -17 q 163 141 203 68 q 83 507 83 288 q 190 918 83 777 q 285 998 227 968 q 416 1028 343 1028 q 548 998 490 1028 q 702 809 654 944 q 749 507 749 675 q 670 141 749 288 q 565 25 630 68 m 243 1120 l 151 1120 q 193 1242 152 1198 q 300 1286 233 1286 q 422 1247 368 1286 q 533 1207 477 1207 q 588 1278 583 1207 l 682 1278 q 640 1157 677 1203 q 536 1111 602 1111 q 417 1150 470 1111 q 306 1190 365 1190 q 243 1120 246 1190 z "},"Ö":{"ha":833,"x_min":83,"x_max":749,"o":"m 83 0 m 527 868 q 504 896 527 868 q 416 924 481 924 q 306 868 352 924 q 238 718 260 811 q 216 506 216 625 q 238 294 216 387 q 306 144 260 201 q 416 88 352 88 q 527 144 481 88 q 595 294 573 201 q 616 506 616 387 q 595 718 616 625 q 527 868 573 811 m 565 25 q 532 4 565 25 q 416 -17 500 -17 q 268 25 333 -17 q 163 141 203 68 q 83 507 83 288 q 190 918 83 777 q 285 998 227 968 q 416 1028 343 1028 q 548 998 490 1028 q 702 809 654 944 q 749 507 749 675 q 670 141 749 288 q 565 25 630 68 m 498 1118 q 505 1240 505 1189 q 629 1233 571 1233 q 621 1111 621 1175 q 498 1118 556 1118 m 203 1233 q 328 1240 262 1233 q 336 1118 328 1181 q 211 1111 275 1118 q 203 1233 211 1170 z "},"×":{"ha":833,"x_min":129,"x_max":730,"o":"m 730 190 l 652 114 l 429 332 l 207 114 l 129 189 l 351 408 l 129 627 l 207 703 l 429 484 l 652 703 l 730 626 l 507 408 l 730 190 z "},"Ø":{"ha":833,"x_min":83,"x_max":749,"o":"m 522 871 q 414 920 477 920 q 305 864 351 920 q 216 506 216 757 q 254 244 216 351 l 522 871 m 647 913 q 749 507 749 774 q 670 141 749 288 q 565 25 630 68 q 416 -17 500 -17 q 267 26 332 -17 l 191 -151 l 99 -116 l 191 98 q 83 510 83 243 q 190 918 83 777 q 424 1028 272 1028 q 571 985 505 1028 l 648 1164 l 743 1136 l 647 913 m 314 138 q 419 92 358 92 q 527 148 481 92 q 616 506 616 255 q 582 761 616 657 l 314 138 z "},"Ù":{"ha":833,"x_min":87,"x_max":745,"o":"m 87 0 m 668 65 q 629 24 668 65 q 416 -17 590 -17 q 165 65 243 -17 q 87 328 87 147 l 87 1011 l 214 1011 l 214 332 q 256 149 214 209 q 416 88 297 88 q 577 149 536 88 q 618 332 618 209 l 618 1011 l 745 1011 l 745 328 q 668 65 745 147 m 271 1407 l 463 1111 l 369 1111 l 111 1407 l 271 1407 z "},"Ú":{"ha":833,"x_min":87,"x_max":745,"o":"m 87 0 m 668 65 q 629 24 668 65 q 416 -17 590 -17 q 165 65 243 -17 q 87 328 87 147 l 87 1011 l 214 1011 l 214 332 q 256 149 214 209 q 416 88 297 88 q 577 149 536 88 q 618 332 618 209 l 618 1011 l 745 1011 l 745 328 q 668 65 745 147 m 368 1111 l 545 1407 l 703 1407 l 465 1111 l 368 1111 z "},"Û":{"ha":833,"x_min":87,"x_max":745,"o":"m 87 0 m 668 65 q 629 24 668 65 q 416 -17 590 -17 q 165 65 243 -17 q 87 328 87 147 l 87 1011 l 214 1011 l 214 332 q 256 149 214 209 q 416 88 297 88 q 577 149 536 88 q 618 332 618 209 l 618 1011 l 745 1011 l 745 328 q 668 65 745 147 m 473 1348 l 648 1111 l 551 1111 l 413 1270 l 276 1111 l 184 1111 l 359 1348 l 473 1348 z "},"Ü":{"ha":833,"x_min":87,"x_max":745,"o":"m 87 0 m 668 65 q 629 24 668 65 q 416 -17 590 -17 q 165 65 243 -17 q 87 328 87 147 l 87 1011 l 214 1011 l 214 332 q 256 149 214 209 q 416 88 297 88 q 577 149 536 88 q 618 332 618 209 l 618 1011 l 745 1011 l 745 328 q 668 65 745 147 m 498 1118 q 505 1240 505 1189 q 629 1233 571 1233 q 621 1111 621 1175 q 498 1118 556 1118 m 203 1233 q 328 1240 262 1233 q 336 1118 328 1181 q 211 1111 275 1118 q 203 1233 211 1170 z "},"Ý":{"ha":833,"x_min":47,"x_max":787,"o":"m 47 0 m 476 0 l 349 0 l 349 402 l 47 1011 l 186 1011 l 414 525 l 644 1011 l 787 1011 l 476 402 l 476 0 m 369 1111 l 546 1407 l 703 1407 l 465 1111 l 369 1111 z "},"Þ":{"ha":833,"x_min":119,"x_max":867,"o":"m 444 436 q 729 648 729 436 q 597 834 729 792 q 409 857 524 857 l 248 857 l 248 436 l 444 436 m 827 813 q 836 798 827 813 q 856 739 844 782 q 867 646 867 696 q 856 554 867 595 q 774 427 832 471 q 451 332 664 345 q 248 326 359 326 l 248 0 l 119 0 l 119 1072 l 248 1072 l 248 966 q 529 957 471 966 q 636 936 587 947 q 714 909 685 925 q 776 869 743 893 q 827 813 809 844 z "},"ß":{"ha":833,"x_min":111,"x_max":913,"o":"m 708 1006 q 774 852 774 949 q 752 758 774 791 q 715 707 730 724 q 676 669 701 689 q 637 637 652 648 q 595 608 623 627 q 558 582 568 589 q 630 542 583 566 q 710 499 676 517 q 856 392 798 453 q 913 246 913 331 q 833 50 913 118 q 604 -18 752 -18 q 367 52 456 -18 l 415 153 q 594 94 517 94 q 713 132 672 94 q 753 226 753 170 q 731 312 753 281 q 694 354 708 343 q 663 379 681 365 q 610 412 644 393 q 537 451 576 430 q 457 503 498 473 q 416 576 416 534 q 476 663 416 618 q 528 700 494 675 q 594 759 563 724 q 625 845 625 795 q 600 924 625 895 q 452 978 553 978 q 306 914 352 978 q 259 743 259 850 l 259 0 l 111 0 l 111 757 q 200 1000 111 915 q 454 1084 290 1084 q 708 1006 619 1084 z "},"à":{"ha":833,"x_min":117,"x_max":699,"o":"m 117 0 m 576 166 l 576 356 l 475 342 q 328 312 369 327 q 237 196 237 277 q 270 106 237 140 q 359 73 302 73 q 576 166 485 73 m 576 513 q 441 672 576 672 q 300 657 377 672 q 192 629 223 642 l 163 720 q 427 766 303 766 q 625 710 550 766 q 699 536 699 654 l 699 0 l 597 0 l 581 86 q 469 13 537 42 q 336 -17 401 -17 q 179 40 241 -17 q 117 200 117 96 q 198 351 117 303 q 315 398 253 385 q 477 422 377 410 l 576 434 l 576 513 m 300 1145 l 492 849 l 397 849 l 140 1145 l 300 1145 z "},"á":{"ha":833,"x_min":117,"x_max":730,"o":"m 117 0 m 576 166 l 576 356 l 475 342 q 328 312 369 327 q 237 196 237 277 q 270 106 237 140 q 359 73 302 73 q 576 166 485 73 m 576 513 q 441 672 576 672 q 300 657 377 672 q 192 629 223 642 l 163 720 q 427 766 303 766 q 625 710 550 766 q 699 536 699 654 l 699 0 l 597 0 l 581 86 q 469 13 537 42 q 336 -17 401 -17 q 179 40 241 -17 q 117 200 117 96 q 198 351 117 303 q 315 398 253 385 q 477 422 377 410 l 576 434 l 576 513 m 396 849 l 573 1145 l 730 1145 l 492 849 l 396 849 z "},"â":{"ha":833,"x_min":117,"x_max":699,"o":"m 117 0 m 576 166 l 576 356 l 475 342 q 328 312 369 327 q 237 196 237 277 q 270 106 237 140 q 359 73 302 73 q 576 166 485 73 m 576 513 q 441 672 576 672 q 300 657 377 672 q 192 629 223 642 l 163 720 q 427 766 303 766 q 625 710 550 766 q 699 536 699 654 l 699 0 l 597 0 l 581 86 q 469 13 537 42 q 336 -17 401 -17 q 179 40 241 -17 q 117 200 117 96 q 198 351 117 303 q 315 398 253 385 q 477 422 377 410 l 576 434 l 576 513 m 501 1086 l 677 849 l 580 849 l 441 1008 l 304 849 l 212 849 l 388 1086 l 501 1086 z "},"ã":{"ha":833,"x_min":117,"x_max":710,"o":"m 117 0 m 576 166 l 576 356 l 475 342 q 328 312 369 327 q 237 196 237 277 q 270 106 237 140 q 359 73 302 73 q 576 166 485 73 m 576 513 q 441 672 576 672 q 300 657 377 672 q 192 629 223 642 l 163 720 q 427 766 303 766 q 625 710 550 766 q 699 536 699 654 l 699 0 l 597 0 l 581 86 q 469 13 537 42 q 336 -17 401 -17 q 179 40 241 -17 q 117 200 117 96 q 198 351 117 303 q 315 398 253 385 q 477 422 377 410 l 576 434 l 576 513 m 272 859 l 179 859 q 221 980 180 936 q 329 1025 262 1025 q 451 985 396 1025 q 562 945 505 945 q 616 1017 611 945 l 710 1017 q 668 895 706 941 q 564 849 630 849 q 446 888 498 849 q 334 928 393 928 q 272 859 275 928 z "},"ä":{"ha":833,"x_min":117,"x_max":699,"o":"m 117 0 m 576 166 l 576 356 l 475 342 q 328 312 369 327 q 237 196 237 277 q 270 106 237 140 q 359 73 302 73 q 576 166 485 73 m 576 513 q 441 672 576 672 q 300 657 377 672 q 192 629 223 642 l 163 720 q 427 766 303 766 q 625 710 550 766 q 699 536 699 654 l 699 0 l 597 0 l 581 86 q 469 13 537 42 q 336 -17 401 -17 q 179 40 241 -17 q 117 200 117 96 q 198 351 117 303 q 315 398 253 385 q 477 422 377 410 l 576 434 l 576 513 m 526 857 q 532 978 532 927 q 657 971 599 971 q 649 849 649 913 q 526 857 584 857 m 231 971 q 356 978 290 971 q 363 857 356 920 q 239 849 302 857 q 231 971 239 908 z "},"å":{"ha":833,"x_min":117,"x_max":699,"o":"m 117 0 m 576 166 l 576 356 l 475 342 q 328 312 369 327 q 237 196 237 277 q 270 106 237 140 q 359 73 302 73 q 576 166 485 73 m 576 513 q 441 672 576 672 q 300 657 377 672 q 192 629 223 642 l 163 720 q 427 766 303 766 q 625 710 550 766 q 699 536 699 654 l 699 0 l 597 0 l 581 86 q 469 13 537 42 q 336 -17 401 -17 q 179 40 241 -17 q 117 200 117 96 q 198 351 117 303 q 315 398 253 385 q 477 422 377 410 l 576 434 l 576 513 m 445 1130 q 478 1130 445 1130 q 556 1091 511 1130 q 602 990 602 1052 q 556 889 602 929 q 445 849 510 849 q 333 888 380 849 q 287 990 287 928 q 333 1091 287 1053 q 445 1130 379 1130 m 528 987 q 528 1004 528 987 q 506 1044 528 1021 q 448 1067 484 1067 q 387 1046 413 1067 q 361 992 361 1026 q 382 935 361 958 q 438 912 402 912 q 501 933 474 912 q 528 987 528 954 z "},"æ":{"ha":833,"x_min":37,"x_max":793,"o":"m 696 443 q 597 663 684 663 q 515 600 544 663 q 481 443 486 538 l 696 443 m 157 201 q 239 83 157 83 q 340 107 294 83 q 402 142 386 132 q 368 307 377 211 l 338 307 q 197 281 237 307 q 157 201 157 256 m 779 66 q 587 -17 701 -17 q 443 64 500 -17 q 412 45 440 62 q 338 6 384 28 q 223 -17 293 -17 q 95 40 153 -17 q 37 190 37 98 q 158 380 37 336 q 354 403 222 403 l 364 403 l 364 533 q 336 627 364 597 q 250 657 309 657 q 98 606 158 657 l 68 714 q 256 766 145 766 q 437 670 389 766 q 597 766 500 766 q 705 715 659 766 q 793 394 793 615 l 792 353 l 477 353 q 511 158 481 233 q 595 83 541 83 q 724 151 663 83 l 779 66 z "},"ç":{"ha":833,"x_min":117,"x_max":680,"o":"m 117 0 m 680 49 q 477 -17 608 -17 q 323 15 393 -17 q 210 102 254 47 q 117 376 117 216 q 160 568 117 480 q 285 711 202 656 q 489 766 368 766 q 677 702 610 766 l 646 619 q 470 671 568 671 q 307 587 372 671 q 242 373 242 503 q 307 161 242 243 q 472 78 372 78 q 650 132 573 78 l 680 49 m 448 -250 q 534 -197 534 -250 q 452 -144 534 -144 q 401 -147 447 -144 l 425 -7 l 498 -7 l 484 -86 l 490 -85 q 599 -112 557 -85 q 641 -196 641 -138 q 457 -310 641 -310 q 329 -294 406 -310 l 335 -232 q 448 -250 410 -250 z "},"è":{"ha":833,"x_min":124,"x_max":720,"o":"m 124 0 m 277 35 q 238 61 277 35 q 162 175 199 87 q 124 373 124 262 q 159 571 124 484 q 263 713 194 659 q 416 767 333 767 q 647 659 574 767 q 720 394 720 551 l 720 353 l 249 353 q 306 158 253 238 q 466 78 359 78 q 665 155 537 85 l 705 71 q 465 -17 617 -17 q 277 35 355 -17 m 602 443 q 442 671 589 671 q 253 443 277 671 l 602 443 m 285 1145 l 477 849 l 382 849 l 125 1145 l 285 1145 z "},"é":{"ha":833,"x_min":124,"x_max":720,"o":"m 124 0 m 277 35 q 238 61 277 35 q 162 175 199 87 q 124 373 124 262 q 159 571 124 484 q 263 713 194 659 q 416 767 333 767 q 647 659 574 767 q 720 394 720 551 l 720 353 l 249 353 q 306 158 253 238 q 466 78 359 78 q 665 155 537 85 l 705 71 q 465 -17 617 -17 q 277 35 355 -17 m 602 443 q 442 671 589 671 q 253 443 277 671 l 602 443 m 382 849 l 559 1145 l 716 1145 l 478 849 l 382 849 z "},"ê":{"ha":833,"x_min":124,"x_max":720,"o":"m 124 0 m 277 35 q 238 61 277 35 q 162 175 199 87 q 124 373 124 262 q 159 571 124 484 q 263 713 194 659 q 416 767 333 767 q 647 659 574 767 q 720 394 720 551 l 720 353 l 249 353 q 306 158 253 238 q 466 78 359 78 q 665 155 537 85 l 705 71 q 465 -17 617 -17 q 277 35 355 -17 m 602 443 q 442 671 589 671 q 253 443 277 671 l 602 443 m 486 1086 l 662 849 l 565 849 l 427 1008 l 290 849 l 197 849 l 373 1086 l 486 1086 z "},"ë":{"ha":833,"x_min":124,"x_max":720,"o":"m 124 0 m 277 35 q 238 61 277 35 q 162 175 199 87 q 124 373 124 262 q 159 571 124 484 q 263 713 194 659 q 416 767 333 767 q 647 659 574 767 q 720 394 720 551 l 720 353 l 249 353 q 306 158 253 238 q 466 78 359 78 q 665 155 537 85 l 705 71 q 465 -17 617 -17 q 277 35 355 -17 m 602 443 q 442 671 589 671 q 253 443 277 671 l 602 443 m 512 857 q 518 978 518 927 q 643 971 585 971 q 635 849 635 913 q 512 857 570 857 m 217 971 q 342 978 275 971 q 349 857 342 920 q 224 849 288 857 q 217 971 224 908 z "},"ì":{"ha":833,"x_min":134,"x_max":804,"o":"m 134 0 m 180 646 l 180 744 l 534 744 l 534 98 l 804 98 l 804 0 l 134 0 l 134 98 l 411 98 l 411 646 l 180 646 m 328 1145 l 520 849 l 426 849 l 168 1145 l 328 1145 z "},"í":{"ha":833,"x_min":134,"x_max":804,"o":"m 134 0 m 180 646 l 180 744 l 534 744 l 534 98 l 804 98 l 804 0 l 134 0 l 134 98 l 411 98 l 411 646 l 180 646 m 425 849 l 602 1145 l 759 1145 l 521 849 l 425 849 z "},"î":{"ha":833,"x_min":134,"x_max":804,"o":"m 134 0 m 180 646 l 180 744 l 534 744 l 534 98 l 804 98 l 804 0 l 134 0 l 134 98 l 411 98 l 411 646 l 180 646 m 530 1086 l 705 849 l 608 849 l 470 1008 l 333 849 l 241 849 l 416 1086 l 530 1086 z "},"ï":{"ha":833,"x_min":134,"x_max":804,"o":"m 134 0 m 180 646 l 180 744 l 534 744 l 534 98 l 804 98 l 804 0 l 134 0 l 134 98 l 411 98 l 411 646 l 180 646 m 555 857 q 561 978 561 927 q 686 971 627 971 q 677 849 677 913 q 555 857 612 857 m 260 971 q 385 978 318 971 q 392 857 385 920 q 267 849 331 857 q 260 971 267 908 z "},"ð":{"ha":833,"x_min":92,"x_max":919,"o":"m 456 87 q 690 274 642 87 q 705 387 705 329 q 662 483 705 444 q 460 557 577 557 q 283 495 342 557 q 224 326 224 433 q 288 154 224 220 q 456 87 351 87 m 515 1098 q 771 857 683 1035 l 919 857 l 919 756 l 809 756 q 846 529 846 643 q 833 339 846 415 q 717 79 807 175 q 459 -17 627 -17 q 191 82 290 -17 q 92 328 92 182 l 92 329 q 186 571 92 481 q 435 661 279 661 q 715 533 633 661 q 688 756 715 663 l 491 756 l 491 857 l 645 857 q 456 1036 585 966 l 515 1098 z "},"ñ":{"ha":833,"x_min":133,"x_max":715,"o":"m 133 0 m 484 766 q 715 473 715 766 l 715 0 l 591 0 l 591 458 q 583 571 591 537 q 559 627 575 605 q 446 671 524 671 q 311 625 366 671 q 256 503 256 579 l 256 0 l 133 0 l 133 744 l 246 744 l 253 663 q 484 766 327 766 m 259 859 l 166 859 q 208 980 168 936 q 316 1025 249 1025 q 438 985 383 1025 q 549 945 492 945 q 604 1017 598 945 l 697 1017 q 655 895 693 941 q 551 849 617 849 q 433 888 486 849 q 321 928 380 928 q 259 859 262 928 z "},"ò":{"ha":833,"x_min":94,"x_max":740,"o":"m 94 0 m 415 78 q 591 207 545 78 q 616 349 616 276 q 611 463 616 422 q 552 613 599 555 q 415 671 506 671 q 243 540 289 671 q 218 392 218 469 q 261 166 218 255 q 415 78 304 78 m 659 658 q 700 604 659 658 q 740 374 740 549 q 652 91 740 199 q 415 -17 565 -17 q 273 14 335 -17 q 172 98 210 44 q 94 378 94 205 q 180 659 94 551 q 422 766 266 766 q 659 658 578 766 m 270 1145 l 462 849 l 368 849 l 110 1145 l 270 1145 z "},"ó":{"ha":833,"x_min":94,"x_max":740,"o":"m 94 0 m 415 78 q 591 207 545 78 q 616 349 616 276 q 611 463 616 422 q 552 613 599 555 q 415 671 506 671 q 243 540 289 671 q 218 392 218 469 q 261 166 218 255 q 415 78 304 78 m 659 658 q 700 604 659 658 q 740 374 740 549 q 652 91 740 199 q 415 -17 565 -17 q 273 14 335 -17 q 172 98 210 44 q 94 378 94 205 q 180 659 94 551 q 422 766 266 766 q 659 658 578 766 m 367 849 l 544 1145 l 701 1145 l 463 849 l 367 849 z "},"ô":{"ha":833,"x_min":94,"x_max":740,"o":"m 94 0 m 415 78 q 591 207 545 78 q 616 349 616 276 q 611 463 616 422 q 552 613 599 555 q 415 671 506 671 q 243 540 289 671 q 218 392 218 469 q 261 166 218 255 q 415 78 304 78 m 659 658 q 700 604 659 658 q 740 374 740 549 q 652 91 740 199 q 415 -17 565 -17 q 273 14 335 -17 q 172 98 210 44 q 94 378 94 205 q 180 659 94 551 q 422 766 266 766 q 659 658 578 766 m 471 1086 l 647 849 l 550 849 l 412 1008 l 275 849 l 182 849 l 358 1086 l 471 1086 z "},"õ":{"ha":833,"x_min":94,"x_max":740,"o":"m 94 0 m 415 78 q 591 207 545 78 q 616 349 616 276 q 611 463 616 422 q 552 613 599 555 q 415 671 506 671 q 243 540 289 671 q 218 392 218 469 q 261 166 218 255 q 415 78 304 78 m 659 658 q 700 604 659 658 q 740 374 740 549 q 652 91 740 199 q 415 -17 565 -17 q 273 14 335 -17 q 172 98 210 44 q 94 378 94 205 q 180 659 94 551 q 422 766 266 766 q 659 658 578 766 m 242 859 l 149 859 q 191 980 151 936 q 299 1025 232 1025 q 421 985 366 1025 q 532 945 475 945 q 587 1017 581 945 l 680 1017 q 638 895 676 941 q 534 849 600 849 q 416 888 469 849 q 304 928 363 928 q 242 859 245 928 z "},"ö":{"ha":833,"x_min":94,"x_max":740,"o":"m 94 0 m 415 78 q 591 207 545 78 q 616 349 616 276 q 611 463 616 422 q 552 613 599 555 q 415 671 506 671 q 243 540 289 671 q 218 392 218 469 q 261 166 218 255 q 415 78 304 78 m 659 658 q 700 604 659 658 q 740 374 740 549 q 652 91 740 199 q 415 -17 565 -17 q 273 14 335 -17 q 172 98 210 44 q 94 378 94 205 q 180 659 94 551 q 422 766 266 766 q 659 658 578 766 m 497 857 q 503 978 503 927 q 628 971 570 971 q 620 849 620 913 q 497 857 555 857 m 202 971 q 327 978 260 971 q 334 857 327 920 q 210 849 273 857 q 202 971 210 908 z "},"÷":{"ha":833,"x_min":103,"x_max":889,"o":"m 420 643 l 420 797 l 582 797 l 582 643 l 420 643 m 420 15 l 420 170 l 582 170 l 582 15 l 420 15 m 103 459 l 889 459 l 889 357 l 103 357 l 103 459 z "},"ø":{"ha":833,"x_min":80,"x_max":753,"o":"m 218 -192 l 142 -164 l 229 35 q 118 174 157 85 q 80 374 80 263 q 173 658 80 549 q 417 766 267 766 q 540 747 484 766 l 624 940 l 700 916 l 610 710 q 716 574 680 661 q 753 378 753 488 q 658 92 753 201 q 412 -17 564 -17 q 302 0 353 -17 l 218 -192 m 345 100 q 419 87 377 87 q 499 104 462 87 q 598 208 567 134 q 629 375 629 282 q 562 600 629 523 l 345 100 m 277 144 l 496 648 q 410 663 460 663 q 318 637 360 663 q 252 570 275 612 q 204 373 204 486 q 277 144 204 223 z "},"ù":{"ha":833,"x_min":111,"x_max":705,"o":"m 111 0 m 705 241 q 417 -17 705 -17 q 130 241 130 -17 l 130 744 l 253 744 l 253 231 q 292 115 253 151 q 417 78 332 78 q 542 115 503 78 q 581 231 581 151 l 581 744 l 705 744 l 705 241 m 271 1145 l 463 849 l 369 849 l 111 1145 l 271 1145 z "},"ú":{"ha":833,"x_min":130,"x_max":705,"o":"m 130 0 m 705 241 q 417 -17 705 -17 q 130 241 130 -17 l 130 744 l 253 744 l 253 231 q 292 115 253 151 q 417 78 332 78 q 542 115 503 78 q 581 231 581 151 l 581 744 l 705 744 l 705 241 m 368 849 l 545 1145 l 703 1145 l 465 849 l 368 849 z "},"û":{"ha":833,"x_min":130,"x_max":705,"o":"m 130 0 m 705 241 q 417 -17 705 -17 q 130 241 130 -17 l 130 744 l 253 744 l 253 231 q 292 115 253 151 q 417 78 332 78 q 542 115 503 78 q 581 231 581 151 l 581 744 l 705 744 l 705 241 m 473 1086 l 648 849 l 551 849 l 413 1008 l 276 849 l 184 849 l 359 1086 l 473 1086 z "},"ü":{"ha":833,"x_min":130,"x_max":705,"o":"m 130 0 m 705 241 q 417 -17 705 -17 q 130 241 130 -17 l 130 744 l 253 744 l 253 231 q 292 115 253 151 q 417 78 332 78 q 542 115 503 78 q 581 231 581 151 l 581 744 l 705 744 l 705 241 m 498 857 q 505 978 505 927 q 629 971 571 971 q 621 849 621 913 q 498 857 556 857 m 203 971 q 328 978 262 971 q 336 857 328 920 q 211 849 275 857 q 203 971 211 908 z "},"ý":{"ha":833,"x_min":67,"x_max":768,"o":"m 67 0 m 437 141 l 633 744 l 768 744 q 525 66 562 162 q 474 -64 488 -30 q 444 -136 460 -99 q 404 -202 427 -172 q 360 -247 380 -233 q 295 -274 339 -262 q 130 -287 250 -287 l 115 -183 q 223 -179 205 -183 q 258 -170 241 -175 q 282 -158 274 -165 q 302 -139 290 -151 q 372 16 334 -109 q 96 670 181 456 l 67 744 l 201 744 l 437 141 m 385 849 l 562 1145 l 720 1145 l 481 849 l 385 849 z "},"þ":{"ha":833,"x_min":107,"x_max":845,"o":"m 656 595 q 474 675 601 675 q 244 488 289 675 q 231 363 231 433 q 292 159 231 237 q 474 80 354 80 q 652 167 593 80 q 711 385 711 254 q 656 595 711 515 m 232 649 q 493 774 328 774 q 752 668 659 774 q 845 388 845 563 l 844 388 q 746 95 844 208 q 488 -17 648 -17 q 231 99 328 -17 l 231 -315 l 107 -315 l 107 1072 l 232 1072 l 232 649 z "},"ÿ":{"ha":833,"x_min":67,"x_max":768,"o":"m 67 0 m 437 141 l 633 744 l 768 744 q 525 66 562 162 q 474 -64 488 -30 q 444 -136 460 -99 q 404 -202 427 -172 q 360 -247 380 -233 q 295 -274 339 -262 q 130 -287 250 -287 l 115 -183 q 223 -179 205 -183 q 258 -170 241 -175 q 282 -158 274 -165 q 302 -139 290 -151 q 372 16 334 -109 q 96 670 181 456 l 67 744 l 201 744 l 437 141 m 515 857 q 522 978 522 927 q 646 971 588 971 q 638 849 638 913 q 515 857 573 857 m 220 971 q 345 978 279 971 q 353 857 345 920 q 228 849 292 857 q 220 971 228 908 z "},"Ā":{"ha":833,"x_min":46,"x_max":787,"o":"m 46 0 m 186 1111 l 186 1206 l 647 1206 l 647 1111 l 186 1111 m 300 428 l 532 428 l 418 867 l 300 428 m 488 1011 l 787 0 l 654 0 l 558 326 l 274 326 l 179 0 l 46 0 l 345 1011 l 488 1011 z "},"ā":{"ha":833,"x_min":117,"x_max":699,"o":"m 117 0 m 178 849 l 178 944 l 638 944 l 638 849 l 178 849 m 576 166 l 576 356 l 475 342 q 328 312 369 327 q 237 196 237 277 q 270 106 237 140 q 359 73 302 73 q 576 166 485 73 m 576 513 q 441 672 576 672 q 300 657 377 672 q 192 629 223 642 l 163 720 q 427 766 303 766 q 625 710 550 766 q 699 536 699 654 l 699 0 l 597 0 l 581 86 q 469 13 537 42 q 336 -17 401 -17 q 179 40 241 -17 q 117 200 117 96 q 198 351 117 303 q 315 398 253 385 q 477 422 377 410 l 576 434 l 576 513 z "},"Ă":{"ha":833,"x_min":46,"x_max":787,"o":"m 46 0 m 300 428 l 532 428 l 418 867 l 300 428 m 488 1011 l 787 0 l 654 0 l 558 326 l 274 326 l 179 0 l 46 0 l 345 1011 l 488 1011 m 271 1284 q 412 1189 288 1189 q 511 1214 471 1189 q 564 1284 551 1239 l 629 1284 q 568 1155 623 1199 q 418 1111 513 1111 q 204 1284 220 1111 l 271 1284 z "},"ă":{"ha":833,"x_min":117,"x_max":699,"o":"m 117 0 m 576 166 l 576 356 l 475 342 q 328 312 369 327 q 237 196 237 277 q 270 106 237 140 q 359 73 302 73 q 576 166 485 73 m 576 513 q 441 672 576 672 q 300 657 377 672 q 192 629 223 642 l 163 720 q 427 766 303 766 q 625 710 550 766 q 699 536 699 654 l 699 0 l 597 0 l 581 86 q 469 13 537 42 q 336 -17 401 -17 q 179 40 241 -17 q 117 200 117 96 q 198 351 117 303 q 315 398 253 385 q 477 422 377 410 l 576 434 l 576 513 m 298 1023 q 439 927 315 927 q 538 952 498 927 q 591 1023 578 977 l 656 1023 q 595 893 650 937 q 446 849 540 849 q 231 1023 248 849 l 298 1023 z "},"Ą":{"ha":833,"x_min":46,"x_max":787,"o":"m 46 0 m 300 428 l 532 428 l 418 867 l 300 428 m 488 1011 l 787 0 l 654 0 l 558 326 l 274 326 l 179 0 l 46 0 l 345 1011 l 488 1011 m 513 1 q 360 -142 360 -75 q 385 -191 360 -175 q 450 -206 410 -206 q 551 -182 489 -206 l 551 -264 q 443 -286 498 -286 q 349 -276 388 -286 q 282 -238 310 -267 q 255 -173 255 -210 q 271 -103 255 -137 q 417 10 296 -47 l 513 1 z "},"ą":{"ha":833,"x_min":117,"x_max":741,"o":"m 117 0 m 576 166 l 576 356 l 475 342 q 328 312 369 327 q 237 196 237 277 q 270 106 237 140 q 359 73 302 73 q 576 166 485 73 m 576 513 q 441 672 576 672 q 300 657 377 672 q 192 629 223 642 l 163 720 q 427 766 303 766 q 625 710 550 766 q 699 536 699 654 l 699 0 l 597 0 l 581 86 q 469 13 537 42 q 336 -17 401 -17 q 179 40 241 -17 q 117 200 117 96 q 198 351 117 303 q 315 398 253 385 q 477 422 377 410 l 576 434 l 576 513 m 704 -16 q 551 -159 551 -92 q 576 -208 551 -192 q 640 -223 601 -223 q 741 -199 680 -223 l 741 -281 q 633 -303 688 -303 q 539 -293 578 -303 q 473 -255 500 -283 q 446 -190 446 -227 q 461 -120 446 -154 q 608 -7 486 -64 l 704 -16 z "},"Ć":{"ha":833,"x_min":84,"x_max":787,"o":"m 84 0 m 765 943 l 720 854 q 525 924 630 924 q 351 865 420 924 q 217 507 217 751 q 252 296 217 390 q 354 145 286 201 q 513 88 422 88 q 722 161 632 88 l 766 66 q 498 -17 671 -17 q 279 51 374 -17 q 134 238 184 119 q 84 491 84 357 q 116 723 84 625 q 203 888 148 821 q 334 991 258 954 q 498 1028 410 1028 q 765 943 667 1028 m 453 1111 l 630 1407 l 787 1407 l 549 1111 l 453 1111 z "},"ć":{"ha":833,"x_min":117,"x_max":747,"o":"m 117 0 m 680 49 q 477 -17 608 -17 q 323 15 393 -17 q 210 102 254 47 q 117 376 117 216 q 160 568 117 480 q 285 711 202 656 q 489 766 368 766 q 677 702 610 766 l 646 619 q 470 671 568 671 q 307 587 372 671 q 242 373 242 503 q 307 161 242 243 q 472 78 372 78 q 650 132 573 78 l 680 49 m 413 849 l 590 1145 l 747 1145 l 509 849 l 413 849 z "},"Ĉ":{"ha":833,"x_min":84,"x_max":766,"o":"m 84 0 m 765 943 l 720 854 q 525 924 630 924 q 351 865 420 924 q 217 507 217 751 q 252 296 217 390 q 354 145 286 201 q 513 88 422 88 q 722 161 632 88 l 766 66 q 498 -17 671 -17 q 279 51 374 -17 q 134 238 184 119 q 84 491 84 357 q 116 723 84 625 q 203 888 148 821 q 334 991 258 954 q 498 1028 410 1028 q 765 943 667 1028 m 494 1334 l 669 1097 l 572 1097 l 434 1257 l 297 1097 l 205 1097 l 380 1334 l 494 1334 z "},"ĉ":{"ha":833,"x_min":117,"x_max":680,"o":"m 117 0 m 680 49 q 477 -17 608 -17 q 323 15 393 -17 q 210 102 254 47 q 117 376 117 216 q 160 568 117 480 q 285 711 202 656 q 489 766 368 766 q 677 702 610 766 l 646 619 q 470 671 568 671 q 307 587 372 671 q 242 373 242 503 q 307 161 242 243 q 472 78 372 78 q 650 132 573 78 l 680 49 m 458 1072 l 634 836 l 537 836 l 399 995 l 262 836 l 170 836 l 345 1072 l 458 1072 z "},"Ċ":{"ha":833,"x_min":84,"x_max":766,"o":"m 377 1217 l 497 1217 l 497 1097 l 377 1097 l 377 1217 m 765 943 l 720 854 q 525 924 630 924 q 351 865 420 924 q 217 507 217 751 q 252 296 217 390 q 354 145 286 201 q 513 88 422 88 q 722 161 632 88 l 766 66 q 498 -17 671 -17 q 279 51 374 -17 q 134 238 184 119 q 84 491 84 357 q 116 723 84 625 q 203 888 148 821 q 334 991 258 954 q 498 1028 410 1028 q 765 943 667 1028 z "},"ċ":{"ha":833,"x_min":117,"x_max":680,"o":"m 342 956 l 462 956 l 462 836 l 342 836 l 342 956 m 680 49 q 477 -17 608 -17 q 323 15 393 -17 q 210 102 254 47 q 117 376 117 216 q 160 568 117 480 q 285 711 202 656 q 489 766 368 766 q 677 702 610 766 l 646 619 q 470 671 568 671 q 307 587 372 671 q 242 373 242 503 q 307 161 242 243 q 472 78 372 78 q 650 132 573 78 l 680 49 z "},"Č":{"ha":833,"x_min":84,"x_max":766,"o":"m 84 0 m 765 943 l 720 854 q 525 924 630 924 q 351 865 420 924 q 217 507 217 751 q 252 296 217 390 q 354 145 286 201 q 513 88 422 88 q 722 161 632 88 l 766 66 q 498 -17 671 -17 q 279 51 374 -17 q 134 238 184 119 q 84 491 84 357 q 116 723 84 625 q 203 888 148 821 q 334 991 258 954 q 498 1028 410 1028 q 765 943 667 1028 m 370 1347 l 497 1187 l 626 1347 l 742 1347 l 557 1111 l 445 1111 l 260 1347 l 370 1347 z "},"č":{"ha":833,"x_min":117,"x_max":702,"o":"m 117 0 m 680 49 q 477 -17 608 -17 q 323 15 393 -17 q 210 102 254 47 q 117 376 117 216 q 160 568 117 480 q 285 711 202 656 q 489 766 368 766 q 677 702 610 766 l 646 619 q 470 671 568 671 q 307 587 372 671 q 242 373 242 503 q 307 161 242 243 q 472 78 372 78 q 650 132 573 78 l 680 49 m 330 1085 l 457 926 l 586 1085 l 702 1085 l 517 849 l 405 849 l 220 1085 l 330 1085 z "},"Ď":{"ha":833,"x_min":106,"x_max":761,"o":"m 106 0 m 252 99 q 578 252 497 99 q 628 507 628 347 q 548 808 628 705 q 254 912 467 912 l 233 912 l 233 99 l 252 99 m 106 1011 l 272 1011 q 637 880 513 1011 q 761 504 761 749 q 635 130 761 259 q 257 0 509 0 l 106 0 l 106 1011 m 281 1333 l 409 1174 l 538 1333 l 654 1333 l 469 1097 l 357 1097 l 172 1333 l 281 1333 z "},"ď":{"ha":833,"x_min":82,"x_max":1059,"o":"m 82 0 m 595 376 q 544 611 595 550 q 397 671 492 671 q 227 541 266 671 q 206 370 206 470 q 397 78 206 78 q 595 376 595 78 m 595 642 l 595 1048 l 719 1061 l 719 0 l 595 0 l 595 115 q 382 -17 520 -17 q 154 96 225 -17 q 82 378 82 208 q 186 690 82 583 q 383 766 260 766 q 520 732 467 766 q 595 642 572 697 m 850 650 l 885 1061 l 1059 1061 l 933 650 l 850 650 z "},"Đ":{"ha":833,"x_min":0,"x_max":1074,"o":"m 0 0 m 471 109 q 812 216 688 109 q 937 530 937 323 q 731 907 937 814 q 398 963 606 963 l 275 963 l 275 585 l 429 585 l 429 484 l 275 484 l 275 109 l 471 109 m 382 1072 q 949 901 783 1072 q 1074 533 1074 770 q 1028 300 1074 402 q 900 132 983 197 q 458 0 732 0 l 146 0 l 146 484 l 0 484 l 0 585 l 146 585 l 146 1072 l 382 1072 z "},"đ":{"ha":833,"x_min":82,"x_max":719,"o":"m 82 0 m 595 376 q 544 611 595 550 q 397 671 492 671 q 227 541 266 671 q 206 370 206 470 q 397 78 206 78 q 595 376 595 78 m 595 642 l 595 1048 l 719 1061 l 719 0 l 595 0 l 595 115 q 382 -17 520 -17 q 154 96 225 -17 q 82 378 82 208 q 186 690 82 583 q 383 766 260 766 q 520 732 467 766 q 595 642 572 697 z "},"Ē":{"ha":833,"x_min":147,"x_max":751,"o":"m 147 0 m 219 1111 l 219 1206 l 680 1206 l 680 1111 l 219 1111 m 274 464 l 274 99 l 751 99 l 741 0 l 147 0 l 147 1011 l 729 1011 l 718 912 l 274 912 l 274 572 l 696 572 l 696 464 l 274 464 z "},"ē":{"ha":833,"x_min":124,"x_max":720,"o":"m 124 0 m 192 850 l 192 945 l 652 945 l 652 850 l 192 850 m 277 35 q 238 61 277 35 q 162 175 199 87 q 124 373 124 262 q 159 571 124 484 q 263 713 194 659 q 416 767 333 767 q 647 659 574 767 q 720 394 720 551 l 720 353 l 249 353 q 306 158 253 238 q 466 78 359 78 q 665 155 537 85 l 705 71 q 465 -17 617 -17 q 277 35 355 -17 m 602 443 q 442 671 589 671 q 253 443 277 671 l 602 443 z "},"Ė":{"ha":833,"x_min":147,"x_max":751,"o":"m 389 1231 l 509 1231 l 509 1111 l 389 1111 l 389 1231 m 274 464 l 274 99 l 751 99 l 741 0 l 147 0 l 147 1011 l 729 1011 l 718 912 l 274 912 l 274 572 l 696 572 l 696 464 l 274 464 z "},"ė":{"ha":833,"x_min":124,"x_max":720,"o":"m 362 970 l 482 970 l 482 850 l 362 850 l 362 970 m 277 35 q 238 61 277 35 q 162 175 199 87 q 124 373 124 262 q 159 571 124 484 q 263 713 194 659 q 416 767 333 767 q 647 659 574 767 q 720 394 720 551 l 720 353 l 249 353 q 306 158 253 238 q 466 78 359 78 q 665 155 537 85 l 705 71 q 465 -17 617 -17 q 277 35 355 -17 m 602 443 q 442 671 589 671 q 253 443 277 671 l 602 443 z "},"Ę":{"ha":833,"x_min":147,"x_max":751,"o":"m 147 0 m 274 464 l 274 99 l 751 99 l 741 0 l 147 0 l 147 1011 l 729 1011 l 718 912 l 274 912 l 274 572 l 696 572 l 696 464 l 274 464 m 551 1 q 398 -142 398 -75 q 423 -191 398 -175 q 488 -206 448 -206 q 589 -182 527 -206 l 589 -264 q 481 -286 536 -286 q 387 -276 426 -286 q 320 -238 348 -267 q 293 -173 293 -210 q 309 -103 293 -137 q 455 10 334 -47 l 551 1 z "},"ę":{"ha":833,"x_min":124,"x_max":720,"o":"m 124 0 m 277 35 q 238 61 277 35 q 162 175 199 87 q 124 373 124 262 q 159 571 124 484 q 263 713 194 659 q 416 767 333 767 q 647 659 574 767 q 720 394 720 551 l 720 353 l 249 353 q 306 158 253 238 q 466 78 359 78 q 665 155 537 85 l 705 71 q 465 -17 617 -17 q 277 35 355 -17 m 602 443 q 442 671 589 671 q 253 443 277 671 l 602 443 m 639 23 q 486 -121 486 -54 q 511 -169 486 -153 q 575 -184 536 -184 q 676 -161 614 -184 l 676 -243 q 568 -264 623 -264 q 474 -255 513 -264 q 408 -216 435 -245 q 380 -152 380 -188 q 396 -81 380 -115 q 543 32 421 -26 l 639 23 z "},"Ě":{"ha":833,"x_min":147,"x_max":751,"o":"m 147 0 m 274 464 l 274 99 l 751 99 l 741 0 l 147 0 l 147 1011 l 729 1011 l 718 912 l 274 912 l 274 572 l 696 572 l 696 464 l 274 464 m 329 1333 l 456 1174 l 585 1333 l 701 1333 l 516 1097 l 404 1097 l 220 1333 l 329 1333 z "},"ě":{"ha":833,"x_min":124,"x_max":720,"o":"m 124 0 m 277 35 q 238 61 277 35 q 162 175 199 87 q 124 373 124 262 q 159 571 124 484 q 263 713 194 659 q 416 767 333 767 q 647 659 574 767 q 720 394 720 551 l 720 353 l 249 353 q 306 158 253 238 q 466 78 359 78 q 665 155 537 85 l 705 71 q 465 -17 617 -17 q 277 35 355 -17 m 602 443 q 442 671 589 671 q 253 443 277 671 l 602 443 m 271 1072 l 399 912 l 528 1072 l 644 1072 l 458 836 l 347 836 l 162 1072 l 271 1072 z "},"Ĝ":{"ha":833,"x_min":73,"x_max":779,"o":"m 73 0 m 711 851 q 498 924 631 924 q 371 889 428 924 q 279 795 314 854 q 205 504 205 672 q 271 215 205 335 q 356 122 303 156 q 470 88 409 88 q 572 103 532 88 q 661 147 613 119 l 661 424 l 437 424 l 437 528 l 779 528 l 779 90 q 628 11 699 39 q 463 -17 557 -17 q 293 25 369 -17 q 169 139 216 66 q 73 509 73 286 q 104 722 73 624 q 191 886 136 819 q 323 990 247 953 q 488 1027 400 1027 q 757 941 656 1027 l 711 851 m 494 1335 l 670 1098 l 573 1098 l 435 1257 l 298 1098 l 205 1098 l 381 1335 l 494 1335 z "},"ĝ":{"ha":833,"x_min":85,"x_max":732,"o":"m 85 0 m 602 142 q 521 42 579 84 q 391 0 463 0 q 168 110 250 0 q 85 377 85 219 q 191 693 85 589 q 397 766 267 766 q 602 643 527 766 l 606 744 l 732 744 q 726 302 726 578 l 726 103 q 621 -224 726 -137 q 395 -304 547 -287 q 218 -313 320 -313 l 208 -218 q 420 -200 356 -218 q 513 -161 484 -182 q 564 -104 543 -139 q 602 93 602 -40 l 602 142 m 544 613 q 533 626 544 613 q 487 655 522 640 q 405 671 452 671 q 323 655 359 671 q 234 553 259 626 q 210 406 210 479 q 216 296 210 332 q 273 163 228 216 q 399 110 317 110 q 576 227 530 110 q 602 358 602 290 q 597 467 602 427 q 578 547 592 508 q 544 613 565 586 m 466 1072 l 642 836 l 545 836 l 406 995 l 269 836 l 177 836 l 353 1072 l 466 1072 z "},"Ğ":{"ha":833,"x_min":73,"x_max":779,"o":"m 73 0 m 711 851 q 498 924 631 924 q 371 889 428 924 q 279 795 314 854 q 205 504 205 672 q 271 215 205 335 q 356 122 303 156 q 470 88 409 88 q 572 103 532 88 q 661 147 613 119 l 661 424 l 437 424 l 437 528 l 779 528 l 779 90 q 628 11 699 39 q 463 -17 557 -17 q 293 25 369 -17 q 169 139 216 66 q 73 509 73 286 q 104 722 73 624 q 191 886 136 819 q 323 990 247 953 q 488 1027 400 1027 q 757 941 656 1027 l 711 851 m 292 1272 q 433 1176 309 1176 q 532 1201 492 1176 q 585 1272 572 1226 l 650 1272 q 589 1142 644 1186 q 439 1098 534 1098 q 225 1272 241 1098 l 292 1272 z "},"ğ":{"ha":833,"x_min":85,"x_max":732,"o":"m 85 0 m 602 142 q 521 42 579 84 q 391 0 463 0 q 168 110 250 0 q 85 377 85 219 q 191 693 85 589 q 397 766 267 766 q 602 643 527 766 l 606 744 l 732 744 q 726 302 726 578 l 726 103 q 621 -224 726 -137 q 395 -304 547 -287 q 218 -313 320 -313 l 208 -218 q 420 -200 356 -218 q 513 -161 484 -182 q 564 -104 543 -139 q 602 93 602 -40 l 602 142 m 544 613 q 533 626 544 613 q 487 655 522 640 q 405 671 452 671 q 323 655 359 671 q 234 553 259 626 q 210 406 210 479 q 216 296 210 332 q 273 163 228 216 q 399 110 317 110 q 576 227 530 110 q 602 358 602 290 q 597 467 602 427 q 578 547 592 508 q 544 613 565 586 m 263 1009 q 405 913 281 913 q 504 939 464 913 q 556 1009 544 964 l 622 1009 q 561 880 616 924 q 411 836 505 836 q 197 1009 213 836 l 263 1009 z "},"Ġ":{"ha":833,"x_min":73,"x_max":779,"o":"m 366 1231 l 486 1231 l 486 1111 l 366 1111 l 366 1231 m 711 851 q 498 924 631 924 q 371 889 428 924 q 279 795 314 854 q 205 504 205 672 q 271 215 205 335 q 356 122 303 156 q 470 88 409 88 q 572 103 532 88 q 661 147 613 119 l 661 424 l 437 424 l 437 528 l 779 528 l 779 90 q 628 11 699 39 q 463 -17 557 -17 q 293 25 369 -17 q 169 139 216 66 q 73 509 73 286 q 104 722 73 624 q 191 886 136 819 q 323 990 247 953 q 488 1027 400 1027 q 757 941 656 1027 l 711 851 z "},"ġ":{"ha":833,"x_min":85,"x_max":732,"o":"m 349 969 l 469 969 l 469 849 l 349 849 l 349 969 m 602 142 q 521 42 579 84 q 391 0 463 0 q 168 110 250 0 q 85 377 85 219 q 191 693 85 589 q 397 766 267 766 q 602 643 527 766 l 606 744 l 732 744 q 726 302 726 578 l 726 103 q 621 -224 726 -137 q 395 -304 547 -287 q 218 -313 320 -313 l 208 -218 q 420 -200 356 -218 q 513 -161 484 -182 q 564 -104 543 -139 q 602 93 602 -40 l 602 142 m 544 613 q 533 626 544 613 q 487 655 522 640 q 405 671 452 671 q 323 655 359 671 q 234 553 259 626 q 210 406 210 479 q 216 296 210 332 q 273 163 228 216 q 399 110 317 110 q 576 227 530 110 q 602 358 602 290 q 597 467 602 427 q 578 547 592 508 q 544 613 565 586 z "},"Ģ":{"ha":833,"x_min":73,"x_max":779,"o":"m 549 -86 l 426 -427 l 328 -427 l 408 -86 l 549 -86 m 711 851 q 498 924 631 924 q 371 889 428 924 q 279 795 314 854 q 205 504 205 672 q 271 215 205 335 q 356 122 303 156 q 470 88 409 88 q 572 103 532 88 q 661 147 613 119 l 661 424 l 437 424 l 437 528 l 779 528 l 779 90 q 628 11 699 39 q 463 -17 557 -17 q 293 25 369 -17 q 169 139 216 66 q 73 509 73 286 q 104 722 73 624 q 191 886 136 819 q 323 990 247 953 q 488 1027 400 1027 q 757 941 656 1027 l 711 851 z "},"ģ":{"ha":833,"x_min":75,"x_max":734,"o":"m 291 847 l 414 1188 l 513 1188 l 432 847 l 291 847 m 604 142 q 521 42 582 85 q 385 0 460 0 q 249 30 309 0 q 152 111 189 60 q 75 377 75 218 q 213 714 75 613 q 388 766 285 766 q 604 643 529 766 l 608 744 l 734 744 q 728 302 728 578 l 728 103 q 651 -173 728 -81 q 401 -288 574 -264 q 210 -299 321 -299 l 210 -186 l 215 -186 q 421 -176 384 -186 q 537 -127 511 -153 q 592 -32 580 -85 q 604 93 604 20 l 604 142 m 604 377 q 402 657 604 657 q 199 373 199 657 q 246 190 199 269 q 399 110 292 110 q 495 133 453 110 q 560 195 537 155 q 604 377 604 270 z "},"Ĥ":{"ha":833,"x_min":95,"x_max":739,"o":"m 95 0 m 473 1348 l 649 1111 l 552 1111 l 414 1270 l 277 1111 l 184 1111 l 360 1348 l 473 1348 m 222 0 l 95 0 l 95 1011 l 222 1011 l 222 580 l 612 580 l 612 1011 l 739 1011 l 739 0 l 612 0 l 612 476 l 222 476 l 222 0 z "},"ĥ":{"ha":833,"x_min":123,"x_max":708,"o":"m 123 0 m 708 449 l 708 0 l 585 0 l 585 433 q 547 622 585 573 q 435 671 510 671 q 303 619 359 671 q 247 506 247 566 l 247 0 l 123 0 l 123 1048 l 247 1061 l 247 654 q 479 766 334 766 q 708 449 708 766 m 458 1367 l 633 1131 l 536 1131 l 398 1290 l 261 1131 l 169 1131 l 345 1367 l 458 1367 z "},"Ħ":{"ha":833,"x_min":95,"x_max":739,"o":"m 95 0 m 222 0 l 95 0 l 95 1011 l 222 1011 l 222 580 l 612 580 l 612 1011 l 739 1011 l 739 0 l 612 0 l 612 476 l 222 476 l 222 0 z "},"ħ":{"ha":833,"x_min":3,"x_max":708,"o":"m 708 449 l 708 0 l 585 0 l 585 433 q 547 622 585 573 q 435 671 510 671 q 303 619 359 671 q 247 506 247 566 l 247 0 l 123 0 l 123 871 l 3 871 l 3 970 l 123 970 l 123 1048 l 247 1061 l 247 970 l 433 970 l 433 871 l 247 871 l 247 654 q 479 766 334 766 q 708 449 708 766 z "},"Ĩ":{"ha":833,"x_min":132,"x_max":702,"o":"m 132 0 m 132 912 l 132 1011 l 702 1011 l 702 912 l 477 912 l 477 99 l 702 99 l 702 0 l 132 0 l 132 99 l 351 99 l 351 912 l 132 912 m 244 1120 l 151 1120 q 193 1242 153 1198 q 301 1286 234 1286 q 423 1247 368 1286 q 534 1207 477 1207 q 589 1278 583 1207 l 682 1278 q 640 1157 678 1203 q 536 1111 602 1111 q 418 1150 471 1111 q 306 1190 366 1190 q 244 1120 247 1190 z "},"ĩ":{"ha":833,"x_min":134,"x_max":804,"o":"m 134 0 m 180 646 l 180 744 l 534 744 l 534 98 l 804 98 l 804 0 l 134 0 l 134 98 l 411 98 l 411 646 l 180 646 m 300 859 l 208 859 q 250 980 209 936 q 357 1025 290 1025 q 479 985 425 1025 q 590 945 534 945 q 645 1017 640 945 l 739 1017 q 696 895 734 941 q 593 849 659 849 q 474 888 527 849 q 362 928 422 928 q 300 859 303 928 z "},"Ī":{"ha":833,"x_min":132,"x_max":702,"o":"m 132 0 m 186 1111 l 186 1206 l 647 1206 l 647 1111 l 186 1111 m 132 912 l 132 1011 l 702 1011 l 702 912 l 477 912 l 477 99 l 702 99 l 702 0 l 132 0 l 132 99 l 351 99 l 351 912 l 132 912 z "},"ī":{"ha":833,"x_min":134,"x_max":804,"o":"m 134 0 m 238 849 l 238 944 l 699 944 l 699 849 l 238 849 m 180 646 l 180 744 l 534 744 l 534 98 l 804 98 l 804 0 l 134 0 l 134 98 l 411 98 l 411 646 l 180 646 z "},"Ĭ":{"ha":833,"x_min":132,"x_max":702,"o":"m 132 0 m 132 912 l 132 1011 l 702 1011 l 702 912 l 477 912 l 477 99 l 702 99 l 702 0 l 132 0 l 132 99 l 351 99 l 351 912 l 132 912 m 271 1271 q 412 1175 288 1175 q 511 1200 471 1175 q 564 1271 551 1225 l 629 1271 q 568 1141 623 1185 q 418 1097 513 1097 q 204 1271 220 1097 l 271 1271 z "},"ĭ":{"ha":833,"x_min":134,"x_max":804,"o":"m 134 0 m 180 646 l 180 744 l 534 744 l 534 98 l 804 98 l 804 0 l 134 0 l 134 98 l 411 98 l 411 646 l 180 646 m 322 1009 q 464 913 340 913 q 563 939 523 913 q 615 1009 603 964 l 681 1009 q 620 880 675 924 q 470 836 564 836 q 256 1009 272 836 l 322 1009 z "},"Į":{"ha":833,"x_min":132,"x_max":702,"o":"m 132 0 m 132 912 l 132 1011 l 702 1011 l 702 912 l 477 912 l 477 99 l 702 99 l 702 0 l 132 0 l 132 99 l 351 99 l 351 912 l 132 912 m 465 1 q 311 -142 311 -75 q 336 -191 311 -175 q 401 -206 361 -206 q 502 -182 440 -206 l 502 -264 q 394 -286 449 -286 q 300 -276 339 -286 q 234 -238 261 -267 q 206 -173 206 -210 q 222 -103 206 -137 q 368 10 247 -47 l 465 1 z "},"į":{"ha":833,"x_min":149,"x_max":722,"o":"m 149 0 m 365 940 l 365 1007 q 392 1050 365 1031 q 447 1069 420 1069 q 502 1050 474 1069 q 529 1007 529 1031 l 529 940 q 502 897 529 916 q 447 878 474 878 q 392 897 420 878 q 365 940 365 916 m 173 649 l 173 744 l 509 744 l 509 95 l 722 95 l 722 0 l 149 0 l 149 95 l 385 95 l 385 649 l 173 649 m 517 1 q 363 -142 363 -75 q 389 -191 363 -175 q 453 -206 414 -206 q 554 -182 492 -206 l 554 -264 q 446 -286 501 -286 q 352 -276 391 -286 q 286 -238 313 -267 q 258 -173 258 -210 q 274 -103 258 -137 q 420 10 299 -47 l 517 1 z "},"İ":{"ha":833,"x_min":132,"x_max":702,"o":"m 357 1217 l 477 1217 l 477 1097 l 357 1097 l 357 1217 m 132 912 l 132 1011 l 702 1011 l 702 912 l 477 912 l 477 99 l 702 99 l 702 0 l 132 0 l 132 99 l 351 99 l 351 912 l 132 912 z "},"ı":{"ha":833,"x_min":134,"x_max":804,"o":"m 180 646 l 180 744 l 534 744 l 534 98 l 804 98 l 804 0 l 134 0 l 134 98 l 411 98 l 411 646 l 180 646 z "},"Ĳ":{"ha":833,"x_min":37,"x_max":796,"o":"m 37 912 l 37 1011 l 391 1011 l 391 912 l 275 912 l 275 99 l 391 99 l 391 0 l 37 0 l 37 99 l 148 99 l 148 912 l 37 912 m 447 98 q 567 82 545 82 q 641 119 612 82 q 669 265 669 156 l 669 912 l 460 912 l 460 1011 l 796 1011 l 796 300 q 716 27 796 87 q 578 -10 667 -10 q 448 0 530 -10 l 447 98 z "},"ĳ":{"ha":833,"x_min":60,"x_max":774,"o":"m 208 940 l 208 1007 q 235 1050 208 1031 q 289 1069 262 1069 q 344 1050 317 1069 q 372 1007 372 1031 l 372 940 q 344 897 372 916 q 289 878 317 878 q 235 897 262 878 q 208 940 208 916 m 83 649 l 83 744 l 351 744 l 351 95 l 517 95 l 517 0 l 60 0 l 60 95 l 228 95 l 228 649 l 83 649 m 488 -149 q 577 -138 555 -149 q 608 -114 599 -126 q 632 48 632 -79 l 632 649 l 454 649 l 454 744 l 755 744 l 755 86 q 746 -84 755 -49 q 705 -179 727 -157 q 617 -231 667 -217 q 490 -244 567 -244 l 399 -244 l 399 -149 l 488 -149 m 610 940 l 610 1007 q 637 1050 610 1031 q 692 1069 665 1069 q 747 1050 720 1069 q 774 1007 774 1031 l 774 940 q 747 897 774 916 q 692 878 720 878 q 637 897 665 878 q 610 940 610 916 z "},"Ĵ":{"ha":833,"x_min":93,"x_max":719,"o":"m 463 1362 l 638 1126 l 541 1126 l 403 1285 l 266 1126 l 174 1126 l 349 1362 l 463 1362 m 93 91 l 237 91 q 357 131 324 91 q 389 265 389 171 l 389 901 l 155 901 l 155 1011 l 719 1011 l 719 901 l 516 901 l 516 300 q 459 58 516 134 q 252 -18 403 -18 l 93 -18 l 93 91 z "},"ĵ":{"ha":833,"x_min":86,"x_max":551,"o":"m 375 1095 l 551 859 l 454 859 l 315 1018 l 178 859 l 86 859 l 262 1095 l 375 1095 m 278 -105 q 394 -76 373 -105 q 418 -3 416 -47 q 421 86 421 41 l 421 646 l 92 646 l 92 744 l 545 744 l 545 124 q 517 -107 545 -50 q 443 -184 490 -165 q 279 -212 377 -212 l 92 -212 l 92 -105 l 278 -105 z "},"Ķ":{"ha":833,"x_min":143,"x_max":809,"o":"m 604 -69 l 481 -410 l 383 -410 l 463 -69 l 604 -69 m 629 1011 l 787 1011 l 448 558 l 809 0 l 648 0 l 351 475 l 270 380 l 270 0 l 143 0 l 143 1011 l 270 1011 l 270 524 l 629 1011 z "},"ķ":{"ha":833,"x_min":146,"x_max":770,"o":"m 569 -103 l 446 -444 l 347 -444 l 428 -103 l 569 -103 m 269 439 l 601 744 l 764 744 l 433 435 l 770 0 l 615 0 l 345 370 l 269 306 l 269 0 l 146 0 l 146 1075 l 269 1075 l 269 439 z "},"ĸ":{"ha":833,"x_min":146,"x_max":817,"o":"m 270 410 l 620 755 l 789 755 l 391 376 l 817 0 l 652 0 l 269 347 l 269 0 l 146 0 l 146 755 l 270 755 l 270 410 z "},"Ĺ":{"ha":833,"x_min":205,"x_max":748,"o":"m 205 0 m 332 99 l 723 99 l 716 0 l 205 0 l 205 1011 l 332 1011 l 332 99 m 414 1097 l 591 1394 l 748 1394 l 510 1097 l 414 1097 z "},"ĺ":{"ha":833,"x_min":93,"x_max":731,"o":"m 93 0 m 705 0 l 606 0 q 419 27 475 0 q 368 63 387 43 q 315 294 317 115 l 315 966 l 93 966 l 93 1061 l 439 1061 l 439 300 q 464 134 439 165 q 526 99 488 104 q 602 95 563 95 l 711 95 l 705 0 m 397 1131 l 574 1427 l 731 1427 l 493 1131 l 397 1131 z "},"Ļ":{"ha":833,"x_min":205,"x_max":723,"o":"m 572 -69 l 450 -410 l 351 -410 l 431 -69 l 572 -69 m 332 99 l 723 99 l 716 0 l 205 0 l 205 1011 l 332 1011 l 332 99 z "},"ļ":{"ha":833,"x_min":93,"x_max":711,"o":"m 555 -69 l 433 -410 l 334 -410 l 414 -69 l 555 -69 m 705 0 l 606 0 q 419 27 475 0 q 368 63 387 43 q 315 294 317 115 l 315 966 l 93 966 l 93 1061 l 439 1061 l 439 300 q 464 134 439 165 q 526 99 488 104 q 602 95 563 95 l 711 95 l 705 0 z "},"Ľ":{"ha":833,"x_min":205,"x_max":1078,"o":"m 205 0 m 332 99 l 723 99 l 716 0 l 205 0 l 205 1011 l 332 1011 l 332 99 m 869 616 l 904 1028 l 1078 1028 l 952 616 l 869 616 z "},"ľ":{"ha":833,"x_min":93,"x_max":1118,"o":"m 93 0 m 705 0 l 606 0 q 419 27 475 0 q 368 63 387 43 q 315 294 317 115 l 315 966 l 93 966 l 93 1061 l 439 1061 l 439 300 q 464 134 439 165 q 526 99 488 104 q 602 95 563 95 l 711 95 l 705 0 m 909 650 l 943 1061 l 1118 1061 l 991 650 l 909 650 z "},"Ŀ":{"ha":833,"x_min":205,"x_max":723,"o":"m 205 0 m 513 437 l 513 591 l 676 591 l 676 437 l 513 437 m 332 99 l 723 99 l 716 0 l 205 0 l 205 1011 l 332 1011 l 332 99 z "},"ŀ":{"ha":833,"x_min":85,"x_max":1327,"o":"m 1164 378 l 1164 532 l 1327 532 l 1327 378 l 1164 378 m 132 972 l 132 1075 l 534 1075 l 534 98 l 854 98 l 854 0 l 85 0 l 85 98 l 411 98 l 411 972 l 132 972 z "},"Ł":{"ha":833,"x_min":7,"x_max":766,"o":"m 285 111 l 766 111 l 766 0 l 158 0 l 158 433 l 7 360 l 7 461 l 158 534 l 158 1011 l 285 1011 l 285 597 l 563 732 l 563 631 l 285 496 l 285 111 z "},"ł":{"ha":833,"x_min":85,"x_max":854,"o":"m 132 972 l 132 1075 l 534 1075 l 534 621 l 762 732 l 762 631 l 534 520 l 534 98 l 854 98 l 854 0 l 85 0 l 85 98 l 411 98 l 411 460 l 207 360 l 207 461 l 411 561 l 411 972 l 132 972 z "},"Ń":{"ha":833,"x_min":102,"x_max":731,"o":"m 102 0 m 731 0 l 582 0 l 217 818 l 217 0 l 102 0 l 102 1011 l 248 1011 l 618 196 l 618 1011 l 731 1011 l 731 0 m 368 1111 l 545 1407 l 703 1407 l 465 1111 l 368 1111 z "},"ń":{"ha":833,"x_min":133,"x_max":718,"o":"m 133 0 m 484 766 q 715 473 715 766 l 715 0 l 591 0 l 591 458 q 583 571 591 537 q 559 627 575 605 q 446 671 524 671 q 311 625 366 671 q 256 503 256 579 l 256 0 l 133 0 l 133 744 l 246 744 l 253 663 q 484 766 327 766 m 384 849 l 561 1145 l 718 1145 l 480 849 l 384 849 z "},"Ņ":{"ha":833,"x_min":102,"x_max":731,"o":"m 527 -69 l 404 -410 l 306 -410 l 386 -69 l 527 -69 m 731 0 l 582 0 l 217 818 l 217 0 l 102 0 l 102 1011 l 248 1011 l 618 196 l 618 1011 l 731 1011 l 731 0 z "},"ņ":{"ha":833,"x_min":133,"x_max":715,"o":"m 542 -69 l 419 -410 l 321 -410 l 401 -69 l 542 -69 m 484 766 q 715 473 715 766 l 715 0 l 591 0 l 591 458 q 583 571 591 537 q 559 627 575 605 q 446 671 524 671 q 311 625 366 671 q 256 503 256 579 l 256 0 l 133 0 l 133 744 l 246 744 l 253 663 q 484 766 327 766 z "},"Ň":{"ha":833,"x_min":102,"x_max":731,"o":"m 102 0 m 731 0 l 582 0 l 217 818 l 217 0 l 102 0 l 102 1011 l 248 1011 l 618 196 l 618 1011 l 731 1011 l 731 0 m 285 1333 l 412 1174 l 541 1333 l 657 1333 l 472 1097 l 360 1097 l 176 1333 l 285 1333 z "},"ň":{"ha":833,"x_min":133,"x_max":715,"o":"m 133 0 m 484 766 q 715 473 715 766 l 715 0 l 591 0 l 591 458 q 583 571 591 537 q 559 627 575 605 q 446 671 524 671 q 311 625 366 671 q 256 503 256 579 l 256 0 l 133 0 l 133 744 l 246 744 l 253 663 q 484 766 327 766 m 300 1072 l 427 912 l 556 1072 l 672 1072 l 487 836 l 375 836 l 191 1072 l 300 1072 z "},"Ŋ":{"ha":833,"x_min":87,"x_max":745,"o":"m 479 -203 q 618 -26 618 -203 l 618 680 q 582 866 618 808 q 445 924 546 924 q 279 865 345 924 q 214 686 214 805 l 214 1 l 87 1 l 87 1011 l 205 1011 l 214 910 q 485 1029 313 1029 l 487 1029 q 677 945 608 1029 q 745 684 745 859 l 745 9 q 683 -232 745 -153 q 463 -311 621 -311 q 275 -296 401 -311 l 234 -292 l 227 -182 q 479 -203 401 -203 z "},"ŋ":{"ha":833,"x_min":133,"x_max":715,"o":"m 484 766 q 715 473 715 766 l 714 38 q 687 -192 714 -136 q 612 -266 659 -248 q 448 -292 546 -292 l 270 -292 l 270 -197 l 448 -197 q 535 -186 513 -197 q 567 -161 557 -174 q 591 0 591 -129 l 591 458 q 583 571 591 537 q 559 627 575 605 q 446 671 524 671 q 311 625 366 671 q 256 503 256 579 l 256 0 l 133 0 l 133 744 l 246 744 l 253 663 q 484 766 327 766 z "},"Ō":{"ha":833,"x_min":83,"x_max":749,"o":"m 83 0 m 186 1111 l 186 1206 l 647 1206 l 647 1111 l 186 1111 m 527 868 q 504 896 527 868 q 416 924 481 924 q 306 868 352 924 q 238 718 260 811 q 216 506 216 625 q 238 294 216 387 q 306 144 260 201 q 416 88 352 88 q 527 144 481 88 q 595 294 573 201 q 616 506 616 387 q 595 718 616 625 q 527 868 573 811 m 565 25 q 532 4 565 25 q 416 -17 500 -17 q 268 25 333 -17 q 163 141 203 68 q 83 507 83 288 q 190 918 83 777 q 285 998 227 968 q 416 1028 343 1028 q 548 998 490 1028 q 702 809 654 944 q 749 507 749 675 q 670 141 749 288 q 565 25 630 68 z "},"ō":{"ha":833,"x_min":94,"x_max":740,"o":"m 94 0 m 186 849 l 186 944 l 647 944 l 647 849 l 186 849 m 415 78 q 591 207 545 78 q 616 349 616 276 q 611 463 616 422 q 552 613 599 555 q 415 671 506 671 q 243 540 289 671 q 218 392 218 469 q 261 166 218 255 q 415 78 304 78 m 659 658 q 700 604 659 658 q 740 374 740 549 q 652 91 740 199 q 415 -17 565 -17 q 273 14 335 -17 q 172 98 210 44 q 94 378 94 205 q 180 659 94 551 q 422 766 266 766 q 659 658 578 766 z "},"Ŏ":{"ha":833,"x_min":83,"x_max":749,"o":"m 83 0 m 527 868 q 504 896 527 868 q 416 924 481 924 q 306 868 352 924 q 238 718 260 811 q 216 506 216 625 q 238 294 216 387 q 306 144 260 201 q 416 88 352 88 q 527 144 481 88 q 595 294 573 201 q 616 506 616 387 q 595 718 616 625 q 527 868 573 811 m 565 25 q 532 4 565 25 q 416 -17 500 -17 q 268 25 333 -17 q 163 141 203 68 q 83 507 83 288 q 190 918 83 777 q 285 998 227 968 q 416 1028 343 1028 q 548 998 490 1028 q 702 809 654 944 q 749 507 749 675 q 670 141 749 288 q 565 25 630 68 m 271 1271 q 412 1175 288 1175 q 511 1200 471 1175 q 564 1271 551 1225 l 629 1271 q 568 1141 623 1185 q 418 1097 513 1097 q 204 1271 220 1097 l 271 1271 z "},"ŏ":{"ha":833,"x_min":94,"x_max":740,"o":"m 94 0 m 415 78 q 591 207 545 78 q 616 349 616 276 q 611 463 616 422 q 552 613 599 555 q 415 671 506 671 q 243 540 289 671 q 218 392 218 469 q 261 166 218 255 q 415 78 304 78 m 659 658 q 700 604 659 658 q 740 374 740 549 q 652 91 740 199 q 415 -17 565 -17 q 273 14 335 -17 q 172 98 210 44 q 94 378 94 205 q 180 659 94 551 q 422 766 266 766 q 659 658 578 766 m 271 1009 q 412 913 288 913 q 511 939 471 913 q 564 1009 551 964 l 629 1009 q 568 880 623 924 q 418 836 513 836 q 204 1009 220 836 l 271 1009 z "},"Ő":{"ha":833,"x_min":83,"x_max":772,"o":"m 83 0 m 527 868 q 504 896 527 868 q 416 924 481 924 q 306 868 352 924 q 238 718 260 811 q 216 506 216 625 q 238 294 216 387 q 306 144 260 201 q 416 88 352 88 q 527 144 481 88 q 595 294 573 201 q 616 506 616 387 q 595 718 616 625 q 527 868 573 811 m 565 25 q 532 4 565 25 q 416 -17 500 -17 q 268 25 333 -17 q 163 141 203 68 q 83 507 83 288 q 190 918 83 777 q 285 998 227 968 q 416 1028 343 1028 q 548 998 490 1028 q 702 809 654 944 q 749 507 749 675 q 670 141 749 288 q 565 25 630 68 m 273 1097 l 441 1326 l 570 1326 l 359 1097 l 273 1097 m 471 1097 l 644 1326 l 772 1326 l 560 1097 l 471 1097 z "},"ő":{"ha":833,"x_min":94,"x_max":772,"o":"m 94 0 m 415 78 q 591 207 545 78 q 616 349 616 276 q 611 463 616 422 q 552 613 599 555 q 415 671 506 671 q 243 540 289 671 q 218 392 218 469 q 261 166 218 255 q 415 78 304 78 m 659 658 q 700 604 659 658 q 740 374 740 549 q 652 91 740 199 q 415 -17 565 -17 q 273 14 335 -17 q 172 98 210 44 q 94 378 94 205 q 180 659 94 551 q 422 766 266 766 q 659 658 578 766 m 273 836 l 441 1064 l 570 1064 l 359 836 l 273 836 m 471 836 l 644 1064 l 772 1064 l 560 836 l 471 836 z "},"Œ":{"ha":833,"x_min":14,"x_max":768,"o":"m 165 536 q 283 134 165 218 q 366 109 319 109 l 395 109 l 395 942 l 366 942 q 165 536 165 942 m 547 486 l 547 116 l 768 116 l 757 0 l 366 0 q 227 30 288 0 q 64 222 115 85 q 14 535 14 359 q 98 906 14 757 q 208 1021 140 979 q 366 1063 277 1063 l 744 1063 l 733 947 l 547 947 l 547 603 l 710 603 l 710 486 l 547 486 z "},"œ":{"ha":833,"x_min":47,"x_max":793,"o":"m 696 443 q 655 631 692 574 q 604 663 635 663 q 531 601 557 663 q 501 443 506 538 l 696 443 m 779 66 q 600 -17 704 -17 q 444 106 495 -17 q 284 -17 385 -17 q 155 36 210 -17 q 47 374 47 140 q 115 658 47 549 q 287 766 182 766 q 448 645 391 766 q 604 766 505 766 q 707 715 663 766 q 793 394 793 615 l 793 353 l 497 353 q 527 160 501 233 q 602 87 553 87 q 724 151 670 87 l 779 66 m 399 348 q 288 663 361 613 q 233 637 257 663 q 197 570 210 612 q 178 478 184 527 q 172 373 172 429 q 178 269 172 317 q 197 178 184 220 q 233 112 210 136 q 288 87 257 87 q 374 174 349 87 q 399 348 399 260 z "},"Ŕ":{"ha":833,"x_min":126,"x_max":804,"o":"m 126 0 m 416 1111 l 593 1407 l 751 1407 l 513 1111 l 416 1111 m 385 559 l 253 559 l 253 912 l 382 912 q 604 825 553 912 q 624 745 624 791 q 562 601 624 644 q 385 559 500 559 m 323 1011 l 126 1011 l 126 0 l 253 0 l 253 449 l 312 449 l 408 451 q 476 349 452 389 q 512 290 500 309 q 541 239 524 271 q 565 194 557 208 q 589 145 572 181 q 610 100 606 109 q 634 49 614 92 q 656 0 653 7 l 804 0 q 673 266 734 154 q 532 479 612 377 q 695 568 633 502 q 756 746 756 634 q 695 916 756 857 q 542 993 634 975 q 323 1011 449 1011 z "},"ŕ":{"ha":833,"x_min":245,"x_max":737,"o":"m 245 0 m 368 0 l 245 0 l 245 744 l 346 744 l 356 606 q 475 726 401 685 q 643 766 549 766 l 703 766 l 703 652 l 625 652 q 437 592 507 652 q 368 414 368 533 l 368 0 m 403 836 l 580 1132 l 737 1132 l 499 836 l 403 836 z "},"Ŗ":{"ha":833,"x_min":126,"x_max":804,"o":"m 575 -83 l 453 -423 l 354 -423 l 434 -83 l 575 -83 m 385 559 l 253 559 l 253 912 l 382 912 q 604 825 553 912 q 624 745 624 791 q 562 601 624 644 q 385 559 500 559 m 323 1011 l 126 1011 l 126 0 l 253 0 l 253 449 l 312 449 l 408 451 q 476 349 452 389 q 512 290 500 309 q 541 239 524 271 q 565 194 557 208 q 589 145 572 181 q 610 100 606 109 q 634 49 614 92 q 656 0 653 7 l 804 0 q 673 266 734 154 q 532 479 612 377 q 695 568 633 502 q 756 746 756 634 q 695 916 756 857 q 542 993 634 975 q 323 1011 449 1011 z "},"ŗ":{"ha":833,"x_min":245,"x_max":703,"o":"m 515 -83 l 392 -423 l 294 -423 l 374 -83 l 515 -83 m 368 0 l 245 0 l 245 744 l 346 744 l 356 606 q 475 726 401 685 q 643 766 549 766 l 703 766 l 703 652 l 625 652 q 437 592 507 652 q 368 414 368 533 l 368 0 z "},"Ř":{"ha":833,"x_min":126,"x_max":804,"o":"m 126 0 m 334 1347 l 461 1187 l 590 1347 l 706 1347 l 521 1111 l 409 1111 l 224 1347 l 334 1347 m 385 559 l 253 559 l 253 912 l 382 912 q 604 825 553 912 q 624 745 624 791 q 562 601 624 644 q 385 559 500 559 m 323 1011 l 126 1011 l 126 0 l 253 0 l 253 449 l 312 449 l 408 451 q 476 349 452 389 q 512 290 500 309 q 541 239 524 271 q 565 194 557 208 q 589 145 572 181 q 610 100 606 109 q 634 49 614 92 q 656 0 653 7 l 804 0 q 673 266 734 154 q 532 479 612 377 q 695 568 633 502 q 756 746 756 634 q 695 916 756 857 q 542 993 634 975 q 323 1011 449 1011 z "},"ř":{"ha":833,"x_min":210,"x_max":703,"o":"m 210 0 m 368 0 l 245 0 l 245 744 l 346 744 l 356 606 q 475 726 401 685 q 643 766 549 766 l 703 766 l 703 652 l 625 652 q 437 592 507 652 q 368 414 368 533 l 368 0 m 319 1085 l 446 926 l 575 1085 l 691 1085 l 506 849 l 394 849 l 210 1085 l 319 1085 z "},"Ś":{"ha":833,"x_min":96,"x_max":715,"o":"m 96 0 m 144 177 q 402 88 252 88 q 528 138 484 88 q 572 267 572 188 q 526 388 572 347 q 415 455 480 429 l 374 471 q 215 549 259 517 q 150 608 170 581 q 102 762 102 670 q 188 959 102 888 q 410 1029 274 1029 q 676 954 581 1029 l 629 856 q 416 924 541 924 q 289 881 336 924 q 242 759 242 837 q 328 630 242 680 q 427 586 361 612 q 559 526 493 560 q 670 432 625 491 q 715 281 715 373 q 630 59 715 136 q 399 -17 546 -17 q 96 64 217 -17 l 144 177 m 361 1112 l 538 1408 l 696 1408 l 458 1112 l 361 1112 z "},"ś":{"ha":833,"x_min":165,"x_max":712,"o":"m 165 0 m 507 422 q 648 347 604 399 q 692 198 692 296 q 618 42 692 101 q 432 -17 544 -17 q 277 3 352 -17 q 165 50 201 23 l 196 139 q 286 103 224 121 q 420 85 348 85 q 535 116 492 85 q 578 196 578 146 q 557 275 578 246 q 475 319 536 304 l 349 349 q 203 428 239 376 q 168 557 168 480 q 230 700 168 635 q 413 766 293 765 l 422 766 q 652 715 557 766 l 625 629 q 424 671 526 671 q 320 639 361 670 q 280 562 280 608 q 300 491 280 515 q 378 454 321 468 l 507 422 m 378 849 l 555 1145 l 712 1145 l 474 849 l 378 849 z "},"Ŝ":{"ha":833,"x_min":96,"x_max":715,"o":"m 96 0 m 144 177 q 402 88 252 88 q 528 138 484 88 q 572 267 572 188 q 526 388 572 347 q 415 455 480 429 l 374 471 q 215 549 259 517 q 150 608 170 581 q 102 762 102 670 q 188 959 102 888 q 410 1029 274 1029 q 676 954 581 1029 l 629 856 q 416 924 541 924 q 289 881 336 924 q 242 759 242 837 q 328 630 242 680 q 427 586 361 612 q 559 526 493 560 q 670 432 625 491 q 715 281 715 373 q 630 59 715 136 q 399 -17 546 -17 q 96 64 217 -17 l 144 177 m 462 1335 l 637 1098 l 541 1098 l 402 1257 l 265 1098 l 173 1098 l 349 1335 l 462 1335 z "},"ŝ":{"ha":833,"x_min":165,"x_max":692,"o":"m 165 0 m 507 422 q 648 347 604 399 q 692 198 692 296 q 618 42 692 101 q 432 -17 544 -17 q 277 3 352 -17 q 165 50 201 23 l 196 139 q 286 103 224 121 q 420 85 348 85 q 535 116 492 85 q 578 196 578 146 q 557 275 578 246 q 475 319 536 304 l 349 349 q 203 428 239 376 q 168 557 168 480 q 230 700 168 635 q 413 766 293 765 l 422 766 q 652 715 557 766 l 625 629 q 424 671 526 671 q 320 639 361 670 q 280 562 280 608 q 300 491 280 515 q 378 454 321 468 l 507 422 m 497 1072 l 673 836 l 576 836 l 437 995 l 300 836 l 208 836 l 384 1072 l 497 1072 z "},"Ş":{"ha":833,"x_min":96,"x_max":715,"o":"m 96 0 m 144 177 q 402 88 252 88 q 528 138 484 88 q 572 267 572 188 q 526 388 572 347 q 415 455 480 429 l 374 471 q 215 549 259 517 q 150 608 170 581 q 102 762 102 670 q 188 959 102 888 q 410 1029 274 1029 q 676 954 581 1029 l 629 856 q 416 924 541 924 q 289 881 336 924 q 242 759 242 837 q 328 630 242 680 q 427 586 361 612 q 559 526 493 560 q 670 432 625 491 q 715 281 715 373 q 630 59 715 136 q 399 -17 546 -17 q 96 64 217 -17 l 144 177 m 392 -250 q 478 -197 478 -250 q 395 -144 478 -144 q 345 -147 391 -144 l 368 -7 l 441 -7 l 428 -86 l 434 -85 q 543 -112 501 -85 q 585 -196 585 -138 q 401 -310 585 -310 q 273 -294 349 -310 l 279 -232 q 392 -250 354 -250 z "},"ş":{"ha":833,"x_min":165,"x_max":692,"o":"m 165 0 m 507 422 q 648 347 604 399 q 692 198 692 296 q 618 42 692 101 q 432 -17 544 -17 q 277 3 352 -17 q 165 50 201 23 l 196 139 q 286 103 224 121 q 420 85 348 85 q 535 116 492 85 q 578 196 578 146 q 557 275 578 246 q 475 319 536 304 l 349 349 q 203 428 239 376 q 168 557 168 480 q 230 700 168 635 q 413 766 293 765 l 422 766 q 652 715 557 766 l 625 629 q 424 671 526 671 q 320 639 361 670 q 280 562 280 608 q 300 491 280 515 q 378 454 321 468 l 507 422 m 427 -250 q 513 -197 513 -250 q 431 -144 513 -144 q 380 -147 426 -144 l 404 -7 l 477 -7 l 463 -86 l 469 -85 q 578 -112 536 -85 q 620 -196 620 -138 q 436 -310 620 -310 q 308 -294 385 -310 l 314 -232 q 427 -250 389 -250 z "},"Š":{"ha":833,"x_min":96,"x_max":715,"o":"m 96 0 m 144 177 q 402 88 252 88 q 528 138 484 88 q 572 267 572 188 q 526 388 572 347 q 415 455 480 429 l 374 471 q 215 549 259 517 q 150 608 170 581 q 102 762 102 670 q 188 959 102 888 q 410 1029 274 1029 q 676 954 581 1029 l 629 856 q 416 924 541 924 q 289 881 336 924 q 242 759 242 837 q 328 630 242 680 q 427 586 361 612 q 559 526 493 560 q 670 432 625 491 q 715 281 715 373 q 630 59 715 136 q 399 -17 546 -17 q 96 64 217 -17 l 144 177 m 278 1348 l 406 1188 l 534 1348 l 650 1348 l 465 1112 l 353 1112 l 169 1348 l 278 1348 z "},"š":{"ha":833,"x_min":165,"x_max":692,"o":"m 165 0 m 507 422 q 648 347 604 399 q 692 198 692 296 q 618 42 692 101 q 432 -17 544 -17 q 277 3 352 -17 q 165 50 201 23 l 196 139 q 286 103 224 121 q 420 85 348 85 q 535 116 492 85 q 578 196 578 146 q 557 275 578 246 q 475 319 536 304 l 349 349 q 203 428 239 376 q 168 557 168 480 q 230 700 168 635 q 413 766 293 765 l 422 766 q 652 715 557 766 l 625 629 q 424 671 526 671 q 320 639 361 670 q 280 562 280 608 q 300 491 280 515 q 378 454 321 468 l 507 422 m 294 1085 l 422 926 l 551 1085 l 667 1085 l 481 849 l 370 849 l 185 1085 l 294 1085 z "},"Ţ":{"ha":833,"x_min":64,"x_max":766,"o":"m 64 0 m 401 -233 q 488 -180 488 -233 q 405 -127 488 -127 q 354 -130 400 -127 l 378 10 l 451 10 l 437 -69 l 444 -68 q 552 -95 511 -68 q 594 -179 594 -121 q 410 -293 594 -293 q 282 -277 359 -293 l 288 -215 q 401 -233 363 -233 m 766 1011 l 766 912 l 478 912 l 478 0 l 351 0 l 351 912 l 64 912 l 64 1011 l 766 1011 z "},"ţ":{"ha":833,"x_min":62,"x_max":715,"o":"m 62 0 m 376 -233 q 462 -180 462 -233 q 379 -127 462 -127 q 328 -130 374 -127 l 352 10 l 425 10 l 412 -69 l 418 -68 q 527 -95 485 -68 q 568 -179 568 -121 q 385 -293 568 -293 q 256 -277 333 -293 l 262 -215 q 376 -233 338 -233 m 395 649 l 395 300 q 402 197 395 235 q 431 135 410 159 q 486 103 452 111 q 578 95 520 95 l 715 95 l 708 0 l 583 0 q 328 71 391 0 q 277 219 286 117 q 272 331 272 264 l 272 649 l 62 649 l 75 744 l 272 744 l 272 1000 l 395 1037 l 395 744 l 709 744 l 709 649 l 395 649 z "},"Ť":{"ha":833,"x_min":64,"x_max":766,"o":"m 64 0 m 766 1011 l 766 912 l 478 912 l 478 0 l 351 0 l 351 912 l 64 912 l 64 1011 l 766 1011 m 285 1333 l 412 1174 l 541 1333 l 657 1333 l 472 1097 l 360 1097 l 176 1333 l 285 1333 z "},"ť":{"ha":833,"x_min":62,"x_max":1048,"o":"m 62 0 m 839 625 l 873 1037 l 1048 1037 l 922 625 l 839 625 m 395 649 l 395 300 q 402 197 395 235 q 431 135 410 159 q 486 103 452 111 q 578 95 520 95 l 715 95 l 708 0 l 583 0 q 328 71 391 0 q 277 219 286 117 q 272 331 272 264 l 272 649 l 62 649 l 75 744 l 272 744 l 272 1000 l 395 1037 l 395 744 l 709 744 l 709 649 l 395 649 z "},"Ŧ":{"ha":833,"x_min":64,"x_max":766,"o":"m 186 380 l 186 475 l 351 475 l 351 912 l 64 912 l 64 1011 l 766 1011 l 766 912 l 478 912 l 478 475 l 647 475 l 647 380 l 478 380 l 478 0 l 351 0 l 351 380 l 186 380 z "},"ŧ":{"ha":833,"x_min":62,"x_max":715,"o":"m 136 393 l 136 488 l 272 488 l 272 649 l 62 649 l 75 744 l 272 744 l 272 1000 l 395 1037 l 395 744 l 709 744 l 709 649 l 395 649 l 395 488 l 596 488 l 596 393 l 395 393 l 395 300 q 402 197 395 235 q 431 135 410 159 q 486 103 452 111 q 578 95 520 95 l 715 95 l 708 0 l 583 0 q 328 71 391 0 q 277 219 286 117 q 272 331 272 264 l 272 393 l 136 393 z "},"Ũ":{"ha":833,"x_min":87,"x_max":745,"o":"m 87 0 m 243 1120 l 151 1120 q 193 1242 152 1198 q 300 1286 233 1286 q 422 1247 368 1286 q 533 1207 477 1207 q 588 1278 583 1207 l 682 1278 q 640 1157 677 1203 q 536 1111 602 1111 q 417 1150 470 1111 q 306 1190 365 1190 q 243 1120 246 1190 m 668 65 q 629 24 668 65 q 416 -17 590 -17 q 165 65 243 -17 q 87 328 87 147 l 87 1011 l 214 1011 l 214 332 q 256 149 214 209 q 416 88 297 88 q 577 149 536 88 q 618 332 618 209 l 618 1011 l 745 1011 l 745 328 q 668 65 745 147 z "},"ũ":{"ha":833,"x_min":130,"x_max":705,"o":"m 130 0 m 245 859 l 152 859 q 194 980 153 936 q 302 1025 235 1025 q 424 985 369 1025 q 534 945 478 945 q 589 1017 584 945 l 683 1017 q 641 895 679 941 q 537 849 603 849 q 419 888 471 849 q 307 928 366 928 q 245 859 248 928 m 705 241 q 417 -17 705 -17 q 130 241 130 -17 l 130 744 l 253 744 l 253 231 q 292 115 253 151 q 417 78 332 78 q 542 115 503 78 q 581 231 581 151 l 581 744 l 705 744 l 705 241 z "},"Ū":{"ha":833,"x_min":87,"x_max":745,"o":"m 87 0 m 186 1111 l 186 1206 l 647 1206 l 647 1111 l 186 1111 m 668 65 q 629 24 668 65 q 416 -17 590 -17 q 165 65 243 -17 q 87 328 87 147 l 87 1011 l 214 1011 l 214 332 q 256 149 214 209 q 416 88 297 88 q 577 149 536 88 q 618 332 618 209 l 618 1011 l 745 1011 l 745 328 q 668 65 745 147 z "},"ū":{"ha":833,"x_min":130,"x_max":705,"o":"m 130 0 m 186 849 l 186 944 l 647 944 l 647 849 l 186 849 m 705 241 q 417 -17 705 -17 q 130 241 130 -17 l 130 744 l 253 744 l 253 231 q 292 115 253 151 q 417 78 332 78 q 542 115 503 78 q 581 231 581 151 l 581 744 l 705 744 l 705 241 z "},"Ŭ":{"ha":833,"x_min":87,"x_max":745,"o":"m 87 0 m 668 65 q 629 24 668 65 q 416 -17 590 -17 q 165 65 243 -17 q 87 328 87 147 l 87 1011 l 214 1011 l 214 332 q 256 149 214 209 q 416 88 297 88 q 577 149 536 88 q 618 332 618 209 l 618 1011 l 745 1011 l 745 328 q 668 65 745 147 m 271 1271 q 412 1175 288 1175 q 511 1200 471 1175 q 564 1271 551 1225 l 629 1271 q 568 1141 623 1185 q 418 1097 513 1097 q 204 1271 220 1097 l 271 1271 z "},"ŭ":{"ha":833,"x_min":130,"x_max":705,"o":"m 130 0 m 705 241 q 417 -17 705 -17 q 130 241 130 -17 l 130 744 l 253 744 l 253 231 q 292 115 253 151 q 417 78 332 78 q 542 115 503 78 q 581 231 581 151 l 581 744 l 705 744 l 705 241 m 271 1009 q 412 913 288 913 q 511 939 471 913 q 564 1009 551 964 l 629 1009 q 568 880 623 924 q 418 836 513 836 q 204 1009 220 836 l 271 1009 z "},"Ů":{"ha":833,"x_min":87,"x_max":745,"o":"m 87 0 m 668 65 q 629 24 668 65 q 416 -17 590 -17 q 165 65 243 -17 q 87 328 87 147 l 87 1011 l 214 1011 l 214 332 q 256 149 214 209 q 416 88 297 88 q 577 149 536 88 q 618 332 618 209 l 618 1011 l 745 1011 l 745 328 q 668 65 745 147 m 416 1378 q 449 1378 416 1378 q 528 1339 482 1378 q 574 1239 574 1300 q 528 1137 574 1177 q 416 1097 481 1097 q 305 1137 351 1097 q 258 1238 258 1176 q 304 1339 258 1301 q 416 1378 351 1378 m 500 1236 q 500 1253 500 1236 q 477 1292 500 1270 q 420 1315 455 1315 q 359 1295 385 1315 q 333 1240 333 1274 q 353 1183 333 1206 q 410 1160 374 1160 q 473 1181 446 1160 q 500 1236 500 1202 z "},"ů":{"ha":833,"x_min":130,"x_max":705,"o":"m 130 0 m 705 241 q 417 -17 705 -17 q 130 241 130 -17 l 130 744 l 253 744 l 253 231 q 292 115 253 151 q 417 78 332 78 q 542 115 503 78 q 581 231 581 151 l 581 744 l 705 744 l 705 241 m 416 1116 q 449 1116 416 1116 q 528 1077 482 1116 q 574 977 574 1038 q 528 876 574 916 q 416 836 481 836 q 305 875 351 836 q 258 977 258 914 q 304 1078 258 1039 q 416 1116 351 1116 m 500 974 q 500 991 500 974 q 477 1030 500 1008 q 420 1053 455 1053 q 359 1033 385 1053 q 333 978 333 1013 q 353 921 333 944 q 410 899 374 899 q 473 919 446 899 q 500 974 500 940 z "},"Ű":{"ha":833,"x_min":87,"x_max":772,"o":"m 87 0 m 668 65 q 629 24 668 65 q 416 -17 590 -17 q 165 65 243 -17 q 87 328 87 147 l 87 1011 l 214 1011 l 214 332 q 256 149 214 209 q 416 88 297 88 q 577 149 536 88 q 618 332 618 209 l 618 1011 l 745 1011 l 745 328 q 668 65 745 147 m 273 1097 l 441 1326 l 570 1326 l 359 1097 l 273 1097 m 471 1097 l 644 1326 l 772 1326 l 560 1097 l 471 1097 z "},"ű":{"ha":833,"x_min":130,"x_max":772,"o":"m 130 0 m 705 241 q 417 -17 705 -17 q 130 241 130 -17 l 130 744 l 253 744 l 253 231 q 292 115 253 151 q 417 78 332 78 q 542 115 503 78 q 581 231 581 151 l 581 744 l 705 744 l 705 241 m 273 836 l 441 1064 l 570 1064 l 359 836 l 273 836 m 471 836 l 644 1064 l 772 1064 l 560 836 l 471 836 z "},"Ų":{"ha":833,"x_min":87,"x_max":745,"o":"m 87 0 m 668 65 q 629 24 668 65 q 416 -17 590 -17 q 165 65 243 -17 q 87 328 87 147 l 87 1011 l 214 1011 l 214 332 q 256 149 214 209 q 416 88 297 88 q 577 149 536 88 q 618 332 618 209 l 618 1011 l 745 1011 l 745 328 q 668 65 745 147 m 465 -16 q 311 -159 311 -92 q 336 -208 311 -192 q 401 -223 361 -223 q 502 -199 440 -223 l 502 -281 q 394 -303 449 -303 q 300 -293 339 -303 q 234 -255 261 -283 q 206 -190 206 -227 q 222 -120 206 -154 q 368 -7 247 -64 l 465 -16 z "},"ų":{"ha":833,"x_min":130,"x_max":705,"o":"m 130 0 m 477 -16 q 324 -159 324 -92 q 349 -208 324 -192 q 414 -223 374 -223 q 515 -199 453 -223 l 515 -281 q 407 -303 462 -303 q 313 -293 352 -303 q 247 -255 274 -283 q 219 -190 219 -227 q 235 -120 219 -154 q 381 -7 260 -64 l 477 -16 m 705 241 q 417 -17 705 -17 q 130 241 130 -17 l 130 744 l 253 744 l 253 231 q 292 115 253 151 q 417 78 332 78 q 542 115 503 78 q 581 231 581 151 l 581 744 l 705 744 l 705 241 z "},"Ŵ":{"ha":833,"x_min":45,"x_max":784,"o":"m 45 0 m 471 1348 l 647 1111 l 550 1111 l 412 1270 l 275 1111 l 182 1111 l 358 1348 l 471 1348 m 614 142 l 659 1011 l 784 1011 l 705 0 l 549 0 l 425 447 l 292 0 l 138 0 l 45 1011 l 170 1011 l 241 144 l 368 597 l 485 597 l 614 142 z "},"ŵ":{"ha":833,"x_min":16,"x_max":817,"o":"m 16 0 m 473 1086 l 648 849 l 551 849 l 413 1008 l 276 849 l 184 849 l 359 1086 l 473 1086 m 288 0 l 161 0 l 16 744 l 140 744 l 229 170 l 353 744 l 500 744 l 622 172 l 700 744 l 817 744 l 680 0 l 550 0 l 426 646 l 288 0 z "},"Ŷ":{"ha":833,"x_min":47,"x_max":787,"o":"m 47 0 m 473 1348 l 649 1111 l 552 1111 l 414 1270 l 277 1111 l 184 1111 l 360 1348 l 473 1348 m 476 0 l 349 0 l 349 402 l 47 1011 l 186 1011 l 414 525 l 644 1011 l 787 1011 l 476 402 l 476 0 z "},"ŷ":{"ha":833,"x_min":67,"x_max":768,"o":"m 67 0 m 474 1086 l 650 849 l 553 849 l 414 1008 l 277 849 l 185 849 l 361 1086 l 474 1086 m 437 141 l 633 744 l 768 744 q 525 66 562 162 q 474 -64 488 -30 q 444 -136 460 -99 q 404 -202 427 -172 q 360 -247 380 -233 q 295 -274 339 -262 q 130 -287 250 -287 l 115 -183 q 223 -179 205 -183 q 258 -170 241 -175 q 282 -158 274 -165 q 302 -139 290 -151 q 372 16 334 -109 q 96 670 181 456 l 67 744 l 201 744 l 437 141 z "},"Ÿ":{"ha":833,"x_min":47,"x_max":787,"o":"m 47 0 m 476 0 l 349 0 l 349 402 l 47 1011 l 186 1011 l 414 525 l 644 1011 l 787 1011 l 476 402 l 476 0 m 498 1118 q 505 1240 505 1189 q 629 1233 571 1233 q 621 1111 621 1175 q 498 1118 556 1118 m 203 1233 q 328 1240 262 1233 q 336 1118 328 1181 q 211 1111 275 1118 q 203 1233 211 1170 z "},"Ź":{"ha":833,"x_min":106,"x_max":718,"o":"m 106 0 m 269 99 l 711 99 l 711 0 l 106 0 l 106 97 l 545 912 l 130 912 l 130 1011 l 718 1011 l 718 925 l 269 99 m 339 1111 l 516 1407 l 673 1407 l 435 1111 l 339 1111 z "},"ź":{"ha":833,"x_min":138,"x_max":691,"o":"m 138 0 m 151 744 l 648 744 l 648 650 l 273 95 l 673 94 l 673 0 l 138 0 l 138 96 l 506 649 l 151 649 l 151 744 m 357 849 l 534 1145 l 691 1145 l 453 849 l 357 849 z "},"Ż":{"ha":833,"x_min":106,"x_max":718,"o":"m 106 0 m 269 99 l 711 99 l 711 0 l 106 0 l 106 97 l 545 912 l 130 912 l 130 1011 l 718 1011 l 718 925 l 269 99 m 327 1231 l 447 1231 l 447 1111 l 327 1111 l 327 1231 z "},"ż":{"ha":833,"x_min":138,"x_max":673,"o":"m 138 0 m 151 744 l 648 744 l 648 650 l 273 95 l 673 94 l 673 0 l 138 0 l 138 96 l 506 649 l 151 649 l 151 744 m 345 969 l 465 969 l 465 849 l 345 849 l 345 969 z "},"Ž":{"ha":833,"x_min":106,"x_max":718,"o":"m 106 0 m 269 99 l 711 99 l 711 0 l 106 0 l 106 97 l 545 912 l 130 912 l 130 1011 l 718 1011 l 718 925 l 269 99 m 255 1347 l 382 1187 l 511 1347 l 627 1347 l 442 1111 l 330 1111 l 146 1347 l 255 1347 z "},"ž":{"ha":833,"x_min":138,"x_max":673,"o":"m 138 0 m 151 744 l 648 744 l 648 650 l 273 95 l 673 94 l 673 0 l 138 0 l 138 96 l 506 649 l 151 649 l 151 744 m 273 1085 l 400 926 l 529 1085 l 645 1085 l 460 849 l 348 849 l 163 1085 l 273 1085 z "},"ƒ":{"ha":833,"x_min":146,"x_max":846,"o":"m 840 937 q 756 952 799 952 q 678 930 713 952 q 614 781 630 898 q 602 694 608 728 l 751 694 l 745 591 l 585 591 l 489 88 q 441 -89 462 -44 q 355 -209 401 -174 q 248 -244 309 -244 q 146 -233 186 -244 l 155 -132 q 220 -142 183 -142 q 283 -115 258 -142 q 319 -57 308 -88 q 337 -3 331 -26 q 355 62 343 21 q 385 197 366 104 q 424 412 403 290 q 456 591 445 534 l 339 591 l 347 694 l 474 694 q 511 892 493 835 q 734 1057 565 1057 q 846 1044 791 1057 l 840 937 z "},"Ș":{"ha":833,"x_min":96,"x_max":715,"o":"m 515 -119 l 393 -460 l 294 -460 l 374 -119 l 515 -119 m 144 184 q 402 100 246 100 q 528 145 485 100 q 572 268 572 190 q 526 388 572 347 q 415 455 480 429 l 374 471 q 215 549 259 517 q 150 608 170 581 q 102 762 102 670 q 188 959 102 888 q 425 1029 274 1029 q 675 950 575 1029 l 627 847 q 403 912 544 912 q 285 872 328 912 q 242 756 242 832 q 328 630 242 680 q 429 585 358 613 q 564 523 500 557 q 671 426 628 488 q 715 268 715 364 q 630 56 715 130 q 386 -17 545 -17 q 96 71 227 -17 l 144 184 z "},"ș":{"ha":833,"x_min":138,"x_max":743,"o":"m 551 -119 l 428 -460 l 330 -460 l 410 -119 l 551 -119 m 586 149 q 600 201 600 172 q 584 255 600 229 q 524 297 568 280 q 418 327 481 313 q 293 361 355 340 q 189 429 231 382 q 146 542 146 476 q 229 714 146 662 q 426 766 312 766 q 699 720 597 766 l 660 620 q 432 657 567 657 q 330 634 371 657 q 290 559 290 610 q 420 449 290 479 q 489 434 441 444 q 584 407 537 423 q 743 225 743 354 q 652 40 743 97 q 431 -17 561 -17 q 138 52 233 -17 l 177 157 q 410 92 268 92 q 586 149 552 92 z "},"ˆ":{"ha":833,"x_min":192,"x_max":656,"o":"m 481 1095 l 656 859 l 559 859 l 421 1018 l 284 859 l 192 859 l 368 1095 l 481 1095 z "},"ˇ":{"ha":833,"x_min":192,"x_max":673,"o":"m 301 1095 l 429 935 l 557 1095 l 673 1095 l 488 859 l 376 859 l 192 1095 l 301 1095 z "},"˘":{"ha":833,"x_min":212,"x_max":637,"o":"m 279 1071 q 420 975 296 975 q 519 1000 479 975 q 572 1071 559 1025 l 637 1071 q 576 941 631 985 q 427 897 521 897 q 212 1071 229 897 l 279 1071 z "},"˙":{"ha":833,"x_min":345,"x_max":465,"o":"m 345 1037 l 465 1037 l 465 917 l 345 917 l 345 1037 z "},"˚":{"ha":833,"x_min":262,"x_max":578,"o":"m 420 1126 q 453 1126 420 1126 q 532 1087 486 1126 q 578 987 578 1048 q 532 886 578 926 q 420 846 486 846 q 309 885 355 846 q 262 987 262 924 q 309 1088 262 1049 q 420 1126 355 1126 m 504 984 q 504 1001 504 984 q 481 1041 504 1018 q 424 1063 459 1063 q 363 1043 389 1063 q 337 988 337 1023 q 357 931 337 954 q 414 909 378 909 q 477 929 450 909 q 504 984 504 950 z "},"˛":{"ha":833,"x_min":281,"x_max":576,"o":"m 539 0 q 386 -144 386 -77 q 411 -192 386 -176 q 475 -208 436 -208 q 576 -184 515 -208 l 576 -266 q 469 -288 524 -288 q 375 -278 414 -288 q 308 -239 336 -268 q 281 -175 281 -211 q 296 -104 281 -138 q 443 9 321 -49 l 539 0 z "},"˜":{"ha":833,"x_min":172,"x_max":703,"o":"m 265 884 l 172 884 q 214 1005 174 961 q 322 1050 255 1050 q 444 1010 389 1050 q 555 970 498 970 q 610 1042 604 970 l 703 1042 q 661 920 699 966 q 557 874 623 874 q 439 913 492 874 q 327 953 387 953 q 265 884 268 953 z "},"˝":{"ha":833,"x_min":167,"x_max":667,"o":"m 167 861 l 336 1090 l 465 1090 l 254 861 l 167 861 m 366 861 l 538 1090 l 667 1090 l 454 861 l 366 861 z "},"–":{"ha":833,"x_min":125,"x_max":943,"o":"m 125 360 l 125 461 l 943 461 l 943 360 l 125 360 z "},"—":{"ha":833,"x_min":-4,"x_max":838,"o":"m -4 360 l -4 461 l 838 461 l 838 360 l -4 360 z "},"―":{"ha":2778,"x_min":219,"x_max":2618,"o":"m 219 456 l 219 561 l 2618 561 l 2618 456 l 219 456 z "},"‘":{"ha":833,"x_min":302,"x_max":517,"o":"m 302 753 l 418 1077 l 517 1077 l 439 753 l 302 753 z "},"’":{"ha":833,"x_min":302,"x_max":516,"o":"m 516 1077 l 401 753 l 302 753 l 382 1077 l 516 1077 z "},"‚":{"ha":833,"x_min":310,"x_max":524,"o":"m 524 148 l 410 -175 l 310 -175 l 389 148 l 524 148 z "},"“":{"ha":833,"x_min":158,"x_max":636,"o":"m 158 753 l 274 1077 l 374 1077 l 295 753 l 158 753 m 420 753 l 536 1077 l 636 1077 l 557 753 l 420 753 z "},"”":{"ha":833,"x_min":158,"x_max":619,"o":"m 619 1077 l 503 753 l 404 753 l 483 1077 l 619 1077 m 373 1077 l 258 753 l 158 753 l 237 1077 l 373 1077 z "},"„":{"ha":833,"x_min":165,"x_max":650,"o":"m 650 148 l 534 -175 l 435 -175 l 512 148 l 650 148 m 380 148 l 265 -175 l 165 -175 l 244 148 l 380 148 z "},"†":{"ha":833,"x_min":163,"x_max":772,"o":"m 163 688 l 163 785 l 408 785 l 408 1068 l 514 1068 l 514 785 l 772 785 l 772 688 l 504 688 l 504 83 l 408 83 l 408 688 l 163 688 z "},"‡":{"ha":833,"x_min":155,"x_max":770,"o":"m 160 724 l 160 821 l 418 821 l 399 1068 l 511 1068 l 511 821 l 770 821 l 770 724 l 506 724 l 506 414 l 764 414 l 764 320 l 506 320 l 526 83 l 397 83 l 414 320 l 155 320 l 155 414 l 414 414 l 414 724 l 160 724 z "},"•":{"ha":833,"x_min":257,"x_max":764,"o":"m 764 508 q 764 461 764 508 q 689 349 764 414 q 507 283 614 283 q 328 353 399 283 q 257 511 257 422 q 378 705 257 636 q 507 743 444 743 q 694 673 625 743 q 764 508 764 602 z "},"…":{"ha":833,"x_min":53,"x_max":1027,"o":"m 458 -8 l 458 146 l 621 146 l 621 -8 l 458 -8 m 864 -8 l 864 146 l 1027 146 l 1027 -8 l 864 -8 m 53 -8 l 53 146 l 216 146 l 216 -8 l 53 -8 z "},"‰":{"ha":833,"x_min":3,"x_max":1674,"o":"m 402 807 q 402 846 402 807 q 367 934 402 886 q 259 983 331 983 q 150 933 187 983 q 113 804 113 883 q 150 677 113 726 q 258 628 186 628 q 366 678 330 628 q 402 807 402 728 m 829 63 q 865 63 829 63 q 938 113 901 63 q 975 242 975 163 q 939 370 975 321 q 831 418 903 418 q 721 369 758 418 q 684 241 684 319 l 686 241 q 721 112 686 160 q 829 63 757 63 m 1275 239 q 1275 199 1275 239 q 1310 111 1275 159 q 1418 63 1345 63 q 1528 113 1491 63 q 1565 241 1565 163 l 1567 241 q 1530 370 1567 321 q 1421 418 1494 418 q 1312 369 1349 418 q 1275 239 1275 319 m 837 1057 l 949 1057 l 248 -15 l 132 -15 l 837 1057 m 3 804 q 3 864 3 804 q 71 995 3 924 q 258 1065 139 1065 q 444 996 378 1065 q 510 806 510 926 q 442 615 510 685 q 254 545 374 545 q 68 614 134 545 q 3 804 3 684 m 575 240 q 575 300 575 240 q 644 431 575 360 q 832 502 713 502 q 1017 432 951 502 q 1082 242 1082 362 q 1014 51 1082 121 q 827 -20 945 -20 q 642 50 708 -20 q 575 240 575 119 m 1167 240 q 1167 300 1167 240 q 1236 431 1167 361 q 1423 502 1304 502 q 1608 432 1543 502 q 1674 242 1674 362 q 1605 51 1674 121 q 1418 -20 1537 -20 q 1233 50 1299 -20 q 1167 240 1167 119 z "},"‹":{"ha":833,"x_min":272,"x_max":597,"o":"m 597 673 l 399 399 l 591 125 l 473 125 l 272 399 l 477 673 l 597 673 z "},"›":{"ha":833,"x_min":272,"x_max":597,"o":"m 272 125 l 469 399 l 277 673 l 395 673 l 597 399 l 390 125 l 272 125 z "},"⁄":{"ha":833,"x_min":115,"x_max":718,"o":"m 592 1194 l 718 1194 l 237 -33 l 115 -33 l 592 1194 z "},"€":{"ha":833,"x_min":65,"x_max":839,"o":"m 159 481 q 157 530 157 508 q 159 577 157 551 l 65 577 l 83 679 l 173 679 q 310 956 204 846 q 582 1066 416 1066 q 839 979 748 1066 l 812 840 q 591 960 729 960 q 339 784 418 960 q 305 679 317 736 l 750 679 l 734 577 l 292 577 l 290 547 q 292 481 290 509 l 724 481 l 709 380 l 302 380 q 585 92 342 92 q 823 186 703 92 l 822 55 q 573 -15 718 -15 q 210 222 307 -15 q 169 380 181 292 l 68 380 l 83 481 l 159 481 z "},"™":{"ha":833,"x_min":0,"x_max":948,"o":"m 410 994 l 248 994 l 248 505 l 157 505 l 157 994 l 0 994 l 0 1068 l 410 1068 l 410 994 m 720 814 l 830 1068 l 948 1068 l 948 505 l 856 505 l 856 943 l 753 689 l 693 689 l 585 943 l 585 505 l 494 505 l 494 1068 l 620 1068 l 720 814 z "},"∂":{"ha":833,"x_min":82,"x_max":824,"o":"m 686 483 q 470 640 630 640 q 327 591 388 640 q 210 307 210 497 q 258 143 210 205 q 399 81 306 81 q 500 107 454 81 q 628 260 583 153 q 686 483 673 367 m 452 1030 q 237 960 345 1030 l 230 1062 q 460 1128 334 1128 q 771 932 681 1128 q 824 652 824 817 q 756 259 824 431 q 552 19 688 87 q 389 -18 478 -18 q 162 71 243 -18 q 82 309 82 159 q 111 482 82 401 q 189 618 139 562 q 309 706 239 674 q 459 738 378 738 q 696 615 604 738 l 697 671 q 644 918 697 818 q 567 1000 616 970 q 452 1030 518 1030 z "},"∆":{"ha":833,"x_min":-42,"x_max":876,"o":"m 702 119 q 568 455 670 203 q 412 897 465 707 q 257 461 353 714 q 128 119 161 208 l 702 119 m -42 0 l -42 59 l 349 1053 l 485 1053 l 876 59 l 876 0 l -42 0 z "},"∏":{"ha":833,"x_min":106,"x_max":1117,"o":"m 1019 941 l 1019 -243 l 886 -243 l 886 941 l 343 941 l 343 -243 l 212 -243 l 212 941 l 118 941 l 106 1048 l 1117 1048 l 1105 941 l 1019 941 z "},"∑":{"ha":833,"x_min":50,"x_max":924,"o":"m 50 -243 l 50 -176 l 531 406 l 68 978 l 68 1048 l 889 1048 l 889 943 l 252 943 l 682 413 l 228 -134 l 924 -134 l 924 -243 l 50 -243 z "},"−":{"ha":833,"x_min":103,"x_max":890,"o":"m 890 365 l 103 365 l 103 466 l 890 466 l 890 365 z "},"√":{"ha":833,"x_min":16,"x_max":861,"o":"m 453 31 q 628 690 508 262 q 763 1175 748 1118 l 861 1175 l 511 -113 l 409 -113 l 160 508 l 31 488 l 16 570 l 237 608 q 325 387 246 585 q 453 31 404 189 z "},"∞":{"ha":833,"x_min":47,"x_max":1193,"o":"m 909 694 q 1116 628 1040 694 q 1193 437 1193 561 q 1168 324 1193 376 q 1104 240 1144 273 q 930 172 968 172 q 925 173 927 172 q 763 217 829 173 q 621 359 698 262 q 320 173 472 173 q 124 251 200 173 q 47 450 47 330 q 74 556 47 508 q 141 633 100 604 q 317 694 227 694 q 580 560 460 694 q 623 509 600 538 q 711 610 689 591 q 814 677 771 660 q 909 694 858 694 m 313 610 q 277 610 313 610 q 193 561 241 610 q 145 436 145 512 q 196 311 145 360 q 323 261 247 261 q 534 388 434 261 q 569 433 549 406 q 444 571 502 532 q 313 610 385 610 m 917 261 q 958 261 917 261 q 1044 310 1000 261 q 1088 440 1088 359 q 1041 566 1088 522 q 932 610 995 610 q 842 596 869 610 q 802 573 815 582 q 772 547 788 564 q 747 520 755 530 q 723 490 739 511 q 697 456 707 469 q 673 435 688 444 q 762 331 732 359 q 917 261 833 261 z "},"∫":{"ha":833,"x_min":160,"x_max":691,"o":"m 691 1090 q 617 1101 661 1101 q 514 1064 541 1101 q 487 942 487 1027 l 487 -17 q 263 -294 487 -294 q 162 -279 218 -294 l 160 -183 q 234 -195 195 -195 q 336 -157 309 -195 q 363 -35 363 -119 l 363 924 q 589 1201 363 1201 q 689 1185 616 1201 l 691 1090 z "},"≈":{"ha":833,"x_min":103,"x_max":884,"o":"m 193 467 l 104 486 l 103 486 q 179 625 123 574 q 330 675 235 675 q 432 655 383 675 q 550 595 481 635 q 657 554 619 554 q 751 589 724 554 q 798 676 779 624 l 881 655 q 663 467 838 467 q 497 516 581 467 q 382 577 412 566 q 326 588 353 588 q 240 555 271 588 q 193 467 210 522 m 677 280 q 755 317 728 280 q 800 401 782 355 l 884 382 q 667 193 840 193 q 568 212 619 193 q 481 254 517 231 q 328 314 387 314 q 193 192 230 314 l 107 213 q 334 401 154 401 q 504 353 420 401 q 620 292 587 304 q 677 280 653 280 z "},"≠":{"ha":833,"x_min":103,"x_max":869,"o":"m 630 625 l 862 625 l 869 536 l 586 536 l 475 328 l 863 328 l 869 239 l 431 239 l 326 34 l 234 47 l 330 239 l 109 239 l 104 328 l 376 328 l 486 536 l 109 536 l 103 625 l 528 625 l 631 827 l 724 814 l 630 625 z "},"≤":{"ha":833,"x_min":103,"x_max":865,"o":"m 103 6 l 103 97 l 865 97 l 865 6 l 103 6 m 130 490 l 130 550 l 843 897 l 843 795 l 262 523 l 843 262 l 843 159 l 130 490 z "},"≥":{"ha":833,"x_min":103,"x_max":862,"o":"m 103 6 l 103 97 l 862 97 l 847 6 l 103 6 m 847 551 l 847 492 l 127 161 l 127 264 l 714 520 l 103 796 l 130 899 l 847 551 z "},"◊":{"ha":833,"x_min":85,"x_max":848,"o":"m 471 975 q 319 724 419 885 q 196 525 219 563 l 463 72 q 615 330 525 184 q 735 524 706 475 q 618 720 705 575 q 471 975 530 865 m 502 -33 l 423 -33 l 85 524 l 428 1082 l 509 1082 l 848 524 l 502 -33 z "}}}
